<svg version="1.1" xmlns="http://www.w3.org/2000/svg" viewBox="0 0 3343.3648057368755 1779.9036689820286" width="3343.3648057368755" height="1779.9036689820286" filter="invert(93%) hue-rotate(180deg)">
  <!-- svg-source:excalidraw -->
  
  <defs>
    <style>
      @font-face {
        font-family: "Virgil";
        src: url("https://excalidraw.com/Virgil.woff2");
      }
      @font-face {
        font-family: "Cascadia";
        src: url("https://excalidraw.com/Cascadia.woff2");
      }
    </style>
  </defs>
  <g stroke-linecap="round"><g transform="translate(556.59155163792 663.7080781836517) rotate(0 22.89975236637588 -51.10619681513356)"><path d="M0.86 -1.96 C10.99 -3.89, 49.3 -4.66, 62.76 -12.58 C76.22 -20.5, 75.35 -42.79, 81.63 -49.47 C87.91 -56.15, 107.53 -45.08, 100.45 -52.68 C93.36 -60.29, 56.37 -86.5, 39.1 -95.1 C21.84 -103.71, 11.35 -107.39, -3.15 -104.29 C-17.65 -101.2, -40.01 -88.99, -47.91 -76.52 C-55.8 -64.05, -58.69 -42.47, -50.5 -29.48 C-42.32 -16.49, -7.43 -3.54, 1.2 1.42 M-2.11 3.14 C7.44 1.55, 46.49 -2.11, 60.36 -10.43 C74.23 -18.75, 74.54 -40.01, 81.13 -46.76 C87.71 -53.51, 106.07 -43.07, 99.86 -50.92 C93.64 -58.77, 60.51 -85.75, 43.84 -93.86 C27.17 -101.96, 14.96 -102.13, -0.17 -99.54 C-15.29 -96.96, -38.25 -89.75, -46.91 -78.33 C-55.57 -66.9, -59.6 -43.87, -52.13 -30.99 C-44.66 -18.12, -11.42 -6.14, -2.1 -1.08" stroke="#495057" stroke-width="4" fill="none"></path></g></g><g stroke-linecap="round"><g transform="translate(616.8275416798974 633.8356630925775) rotate(0 -4.831069139414012 44.08984183171094)"><path d="M-2.29 -1.93 C2.94 2.7, 23.59 14.07, 32.65 27.34 C41.71 40.61, 52.42 68.95, 52.06 77.68 C51.71 86.42, 39.23 77.92, 30.52 79.75 C21.81 81.59, 11.39 92.99, -0.17 88.68 C-11.74 84.37, -28.6 61.3, -38.86 53.87 C-49.12 46.45, -62.45 50.85, -61.73 44.13 C-61 37.41, -45.07 20.44, -34.49 13.53 C-23.9 6.62, -3.65 5.32, 1.78 2.68 M1.67 3.2 C6.37 8.32, 22.26 17.94, 30.22 30.8 C38.19 43.66, 49.3 71.88, 49.47 80.35 C49.63 88.81, 39.83 80.17, 31.21 81.59 C22.58 83, 10.16 93.75, -2.29 88.84 C-14.73 83.92, -33.96 59.95, -43.47 52.09 C-52.98 44.23, -60.54 48.22, -59.34 41.67 C-58.13 35.12, -45.95 19.6, -36.26 12.8 C-26.57 6, -7.05 2.34, -1.19 0.87" stroke="#495057" stroke-width="4" fill="none"></path></g></g><g stroke-linecap="round"><g transform="translate(520.4860670032267 633.1108650808242) rotate(0 -128.24885948384872 160.01118341615006)"><path d="M1.78 2.34 C-1.28 4.04, -3.9 10.44, -18.94 9.91 C-33.98 9.38, -66.77 -8.55, -88.44 -0.86 C-110.11 6.83, -129.2 40.11, -148.97 56.05 C-168.74 71.99, -191.05 83.98, -207.05 94.79 C-223.04 105.6, -230.63 109.04, -244.95 120.88 C-259.27 132.72, -281.39 148.96, -292.99 165.82 C-304.58 182.68, -326.18 196.82, -314.52 222.04 C-302.87 247.25, -258.08 308.7, -223.07 317.11 C-188.05 325.52, -140.35 293.74, -104.45 272.47 C-68.55 251.21, -30.14 224.96, -7.65 189.53 C14.84 154.1, 18.82 83.78, 30.48 59.87 C42.13 35.96, 67.18 56.35, 62.28 46.08 C57.37 35.8, 11.63 5.74, 1.05 -1.8 M-0.7 1.14 C-2.85 1.99, 1.09 5.34, -13.76 5.37 C-28.61 5.4, -67.28 -6.35, -89.79 1.34 C-112.3 9.03, -128.75 35.61, -148.82 51.51 C-168.89 67.4, -194.64 85.63, -210.22 96.69 C-225.79 107.75, -227.49 106.93, -242.27 117.87 C-257.06 128.81, -286.48 144.99, -298.94 162.35 C-311.41 179.71, -329.16 195.44, -317.06 222.05 C-304.97 248.66, -260.91 313.64, -226.38 321.99 C-191.84 330.34, -146.32 295.13, -109.85 272.14 C-73.39 249.16, -31.79 219.42, -7.59 184.07 C16.61 148.73, 23.51 83.34, 35.37 60.09 C47.22 36.85, 69.46 55.16, 63.55 44.61 C57.65 34.05, 10.73 4.21, -0.04 -3.22" stroke="#495057" stroke-width="4" fill="none"></path></g></g><g stroke-linecap="round"><g transform="translate(348.6867732423284 836.3638852665656) rotate(0 26.687512608631096 167.38097748787345)"><path d="M1.94 2.74 C-8.51 -0.36, -44.93 -23.95, -62.29 -16 C-79.65 -8.05, -106.94 30.44, -102.21 50.46 C-97.48 70.49, -51.35 90.5, -33.92 104.15 C-16.49 117.8, -0.53 122.6, 2.38 132.34 C5.28 142.09, -14.58 143.77, -16.51 162.61 C-18.45 181.45, -15.58 222.92, -9.23 245.37 C-2.87 267.82, 17.61 282.07, 21.62 297.31 C25.63 312.55, 11.35 327.81, 14.81 336.79 C18.26 345.78, 19.3 349.9, 42.36 351.22 C65.41 352.54, 138.23 350.23, 153.13 344.72 C168.04 339.21, 144.36 324.15, 131.79 318.16 C119.23 312.16, 87.57 316.85, 77.75 308.74 C67.94 300.63, 70.42 293.53, 72.91 269.49 C75.39 245.46, 90.96 190.48, 92.67 164.53 C94.38 138.58, 88.33 129.85, 83.17 113.79 C78.01 97.74, 75.38 87.13, 61.69 68.21 C48.01 49.29, 11.05 11.97, 1.06 0.28 M-0.45 1.76 C-11.07 0.1, -45.79 -21.14, -63.05 -13.86 C-80.3 -6.58, -108.8 25.52, -103.98 45.45 C-99.15 65.39, -52.62 91, -34.1 105.75 C-15.59 120.5, 3.68 123.68, 7.11 133.94 C10.54 144.21, -10.95 149.19, -13.54 167.35 C-16.12 185.51, -13.81 221.15, -8.41 242.89 C-3.01 264.63, 15.61 282.64, 18.88 297.77 C22.15 312.9, 7.11 324.71, 11.21 333.67 C15.32 342.63, 19.83 349.41, 43.49 351.54 C67.15 353.66, 138.74 350.95, 153.15 346.41 C167.56 341.87, 142.43 331, 129.97 324.32 C117.51 317.64, 88.17 315.41, 78.38 306.32 C68.6 297.22, 68.89 293.68, 71.28 269.75 C73.67 245.83, 91.63 188.25, 92.71 162.76 C93.8 137.27, 83.32 132.42, 77.79 116.82 C72.26 101.21, 72.71 88.4, 59.51 69.15 C46.32 49.89, 8.61 13.22, -1.4 1.3" stroke="#495057" stroke-width="4" fill="none"></path></g></g><g stroke-linecap="round"><g transform="translate(221.47486180264968 900.0059277931903) rotate(0 -9.186646152139929 141.46571686146422)"><path d="M-0.44 0.17 C3.99 6.78, 12.61 27.15, 25.84 41.97 C39.08 56.8, 71 71.96, 78.95 89.12 C86.89 106.28, 89.9 126.35, 73.51 144.94 C57.12 163.52, 0.73 187.36, -19.38 200.64 C-39.48 213.91, -50.44 211.97, -47.11 224.59 C-43.77 237.21, -1.08 266.27, 0.62 276.34 C2.32 286.4, -26.42 284.31, -36.91 284.97 C-47.41 285.62, -57.07 284.53, -62.35 280.26 C-67.63 276, -61.71 270.38, -68.61 259.38 C-75.51 248.37, -102.17 224.99, -103.73 214.23 C-105.28 203.47, -86.73 205.53, -77.93 194.81 C-69.12 184.09, -59.84 162.35, -50.9 149.9 C-41.96 137.46, -35.62 128.26, -24.28 120.13 C-12.94 112, 13.01 121.01, 17.14 101.11 C21.28 81.21, 3.74 17.17, 0.51 0.73 M-4.13 -2.21 C0.12 4.73, 10.59 21.69, 24.29 37.34 C38 52.98, 69.79 73.41, 78.12 91.66 C86.45 109.9, 89.86 128.68, 74.29 146.82 C58.72 164.96, 4.58 186.69, -15.28 200.51 C-35.13 214.34, -47.77 217.69, -44.84 229.75 C-41.92 241.81, 1.21 263.83, 2.25 272.86 C3.28 281.88, -27.26 283.14, -38.63 283.9 C-50 284.67, -61.3 281.51, -65.97 277.43 C-70.63 273.36, -60.46 270.93, -66.64 259.47 C-72.83 248.01, -100.8 219.79, -103.07 208.69 C-105.33 197.58, -89.14 202.78, -80.25 192.85 C-71.36 182.91, -58.92 161.15, -49.73 149.06 C-40.54 136.97, -36.31 128.61, -25.09 120.33 C-13.86 112.05, 12.9 118.77, 17.62 99.4 C22.34 80.02, 5.79 21.16, 3.23 4.08" stroke="#495057" stroke-width="4" fill="none"></path></g></g><g stroke-linecap="round"><g transform="translate(528.2382913846182 841.265772537766) rotate(0 -3.4574313043699476 156.3978447579202)"><path d="M0.09 1.27 C-12.44 15.62, -70.13 61.63, -75.49 84.54 C-80.86 107.45, -45.95 118.96, -32.11 138.71 C-18.26 158.47, -4.76 181.87, 7.55 203.05 C19.86 224.23, 41.33 251.12, 41.76 265.79 C42.2 280.47, 13.44 282.85, 10.16 291.09 C6.88 299.34, 15.03 313.59, 22.09 315.27 C29.15 316.95, 45.06 309.55, 52.53 301.18 C59.99 292.81, 66.66 277.3, 66.9 265.03 C67.13 252.76, 56.54 243.06, 53.91 227.56 C51.29 212.06, 56.09 196.31, 51.13 172.04 C46.16 147.78, 32.9 110.73, 24.13 81.97 C15.35 53.22, 2.09 13.47, -1.5 -0.5 M-3.31 -0.5 C-16.03 13.1, -71.83 56.32, -76.88 79.97 C-81.93 103.62, -47.5 120.45, -33.58 141.37 C-19.66 162.3, -5.41 184.75, 6.62 205.53 C18.66 226.32, 38.79 252.31, 38.64 266.07 C38.5 279.83, 8.21 280.33, 5.75 288.1 C3.3 295.87, 16.34 310.57, 23.9 312.7 C31.46 314.82, 43.38 308.15, 51.12 300.85 C58.86 293.56, 69.44 281.26, 70.35 268.94 C71.26 256.62, 59.84 243.92, 56.58 226.94 C53.31 209.96, 55.41 191.5, 50.77 167.05 C46.14 142.59, 37.51 108.5, 28.76 80.2 C20 51.91, 2.63 11.2, -1.78 -2.71" stroke="#495057" stroke-width="4" fill="none"></path></g></g><g stroke-linecap="round"><g transform="translate(269.37641356355743 679.5325189331211) rotate(47.48758995022013 10.440409423916662 126.92618080137095)"><path d="M-0.98 0.59 C-11.91 7.01, -58.31 23.35, -63.63 36.93 C-68.95 50.51, -46.75 62.15, -32.9 82.08 C-19.06 102.01, 6.1 135.64, 19.42 156.51 C32.73 177.38, 47.99 195.83, 46.99 207.29 C45.99 218.76, 17.6 217.95, 13.42 225.28 C9.25 232.62, 13.47 249.25, 21.94 251.3 C30.41 253.35, 53.49 244.22, 64.25 237.58 C75.01 230.95, 85.71 222.66, 86.5 211.5 C87.28 200.34, 72.72 189.28, 68.94 170.63 C65.17 151.98, 70.3 125.13, 63.84 99.61 C57.38 74.09, 41.27 34.42, 30.18 17.51 C19.1 0.61, 1.92 1.17, -2.68 -1.82 M3.69 -1.55 C-7.57 5.52, -58.18 26.32, -64.53 40.75 C-70.88 55.17, -48.66 66.54, -34.4 84.98 C-20.14 103.42, 7.88 132.05, 21.05 151.38 C34.21 170.7, 45.3 189.11, 44.59 200.93 C43.87 212.76, 20.34 213.24, 16.76 222.33 C13.18 231.41, 15.42 253.11, 23.1 255.44 C30.78 257.77, 52.7 243.94, 62.86 236.31 C73.01 228.68, 82.59 220.65, 84.04 209.66 C85.49 198.68, 76.02 188.54, 71.57 170.38 C67.12 152.22, 63.5 126.47, 57.32 100.72 C51.15 74.98, 44.67 32.06, 34.52 15.92 C24.37 -0.22, 1.78 6.72, -3.59 3.88" stroke="#495057" stroke-width="4" fill="none"></path></g></g><g stroke-linecap="round"><g transform="translate(295.55044831680607 713.2478064960242) rotate(4.454050121044494 82.85942832071828 -15.556926150551817)"><path d="M-2.62 0.42 C1.05 7.76, 6.53 38.85, 23.4 42.52 C40.26 46.19, 73.77 35.58, 98.56 22.44 C123.35 9.31, 165.42 -20.32, 172.14 -36.29 C178.85 -52.25, 167.44 -79.88, 138.84 -73.33 C110.24 -66.77, 19.28 -16.17, 0.54 3.03 C-18.19 22.23, 22.75 35.17, 26.42 41.88 M1.15 -1.82 C4.23 4.76, 4.4 33.52, 20.58 37.9 C36.76 42.27, 72.81 36.35, 98.24 24.46 C123.68 12.56, 166.99 -17.13, 173.19 -33.46 C179.4 -49.78, 164.9 -79.33, 135.47 -73.47 C106.04 -67.62, 15.82 -17.03, -3.36 1.67 C-22.55 20.37, 15.17 31.81, 20.36 38.74" stroke="#495057" stroke-width="4" fill="none"></path></g></g><g stroke-linecap="round"><g transform="translate(1122.9131678618828 514.4400484135398) rotate(349.8649437874517 25.137257191166555 -58.370262681832855)"><path d="M0.49 1.67 C11.84 -0.17, 54.61 -1.91, 68.88 -10.62 C83.16 -19.32, 79.87 -42.75, 86.13 -50.54 C92.39 -58.34, 115.72 -47.45, 106.44 -57.39 C97.15 -67.32, 53.89 -102.87, 30.42 -110.13 C6.96 -117.4, -19.47 -114.58, -34.37 -100.96 C-49.26 -87.35, -65.07 -44.91, -58.96 -28.46 C-52.85 -12, -7.38 -7.42, 2.29 -2.25 M-2.69 0.11 C9.54 -1.32, 58.78 0.71, 74.53 -7.24 C90.28 -15.18, 86.23 -39.74, 91.8 -47.59 C97.36 -55.44, 117.51 -42.87, 107.91 -54.35 C98.31 -65.83, 58.64 -109.49, 34.21 -116.47 C9.78 -123.45, -23.3 -110.43, -38.68 -96.24 C-54.05 -82.05, -64.65 -46.64, -58.02 -31.31 C-51.39 -15.98, -9.1 -9.61, 1.11 -4.27" stroke="#495057" stroke-width="4" fill="none"></path></g></g><g stroke-linecap="round"><g transform="translate(1204.9468893394874 480.66941306166245) rotate(359.40281045874497 -14.183300653689003 40.628507778442156)"><path d="M1.67 -1.39 C6.68 3.67, 23.56 19.45, 30.48 30.83 C37.41 42.22, 44.89 60.64, 43.23 66.92 C41.57 73.2, 29.84 66.05, 20.51 68.52 C11.18 70.99, -1.24 83.31, -12.76 81.74 C-24.28 80.17, -38.75 64.2, -48.6 59.11 C-58.44 54.03, -72.76 58.72, -71.83 51.25 C-70.91 43.78, -55.45 22.8, -43.05 14.32 C-30.65 5.84, -4.32 2.31, 2.56 0.39 M-0.87 4.03 C3.7 9.33, 20.97 23.59, 28 33.3 C35.02 43.01, 42.34 56.21, 41.27 62.28 C40.19 68.36, 30.87 66.18, 21.52 69.74 C12.17 73.31, -3.47 85.94, -14.85 83.66 C-26.22 81.38, -37.54 61.8, -46.73 56.08 C-55.92 50.35, -71.44 56.5, -69.99 49.31 C-68.55 42.13, -49.72 21.65, -38.05 12.98 C-26.39 4.32, -6.19 -1.03, 0.01 -2.66" stroke="#495057" stroke-width="4" fill="none"></path></g></g><g stroke-linecap="round"><g transform="translate(1129.2018708624887 519.2638287353057) rotate(342.2441853306421 -124.47169693686874 150.55224666711723)"><path d="M-1.39 -0.46 C-6.19 -1.37, -14.2 -4.65, -28.31 -3.79 C-42.41 -2.93, -66.03 -3.15, -86.02 4.71 C-106.01 12.57, -131.76 30.87, -148.23 43.37 C-164.7 55.87, -171.61 63.03, -184.86 79.68 C-198.1 96.34, -214.01 126.43, -227.7 143.27 C-241.39 160.11, -252.3 162.52, -266.97 180.73 C-281.64 198.94, -318.12 232.69, -315.73 252.53 C-313.34 272.37, -283.65 306.73, -252.62 299.78 C-221.59 292.82, -168.7 234.34, -129.56 210.8 C-90.42 187.25, -45.26 183.95, -17.77 158.53 C9.72 133.1, 21.11 76.91, 35.37 58.25 C49.63 39.58, 73.82 56.03, 67.77 46.54 C61.73 37.06, 10.7 9.42, -0.91 1.35 M3.05 -3.18 C-0.92 -3.78, -8.07 -0.79, -23.07 -0.32 C-38.07 0.14, -65.95 -6.9, -86.94 -0.39 C-107.93 6.11, -132.3 25.46, -149.03 38.72 C-165.76 51.97, -174.68 62.07, -187.33 79.14 C-199.99 96.21, -210.69 123.5, -224.95 141.14 C-239.2 158.78, -257.23 166.31, -272.85 184.97 C-288.47 203.64, -321.44 233.24, -318.69 253.11 C-315.94 272.99, -286.99 311.28, -256.36 304.22 C-225.72 297.15, -174.68 234.68, -134.88 210.73 C-95.07 186.77, -45.45 186.16, -17.53 160.48 C10.4 134.81, 18.26 75.97, 32.67 56.66 C47.08 37.34, 74.88 53.77, 68.92 44.6 C62.96 35.43, 8.78 9.76, -3.07 1.63" stroke="#495057" stroke-width="4" fill="none"></path></g></g><g stroke-linecap="round"><g transform="translate(976.7441361048291 798.7981519872872) rotate(0 15.737383626903465 179.7763220959929)"><path d="M-0.46 -2.15 C-12.58 -6.94, -52.5 -35.49, -71.06 -30.14 C-89.63 -24.79, -118 7.83, -111.84 29.93 C-105.69 52.03, -52.69 85.82, -34.14 102.47 C-15.59 119.13, -5.39 118.11, -0.54 129.86 C4.32 141.62, -5.45 156.26, -5.02 173.02 C-4.58 189.77, -3.01 204.39, 2.07 230.4 C7.14 256.41, 23.71 303.88, 25.44 329.08 C27.16 354.28, 6.26 371.98, 12.4 381.6 C18.53 391.22, 40.51 385.43, 62.26 386.8 C84.01 388.18, 134.8 394.87, 142.9 389.86 C151 384.85, 123.42 367.51, 110.87 356.76 C98.33 346, 75.26 343.87, 67.63 325.36 C60 306.84, 65.02 269.02, 65.1 245.65 C65.17 222.28, 67.15 202.09, 68.11 185.15 C69.07 168.21, 69.55 157.03, 70.87 144.02 C72.2 131.01, 88.16 131.34, 76.08 107.09 C64 82.84, 11.17 16.21, -1.6 -1.47 M-4.15 2.86 C-16.83 -2.62, -55.28 -39.06, -73.46 -34.26 C-91.64 -29.46, -118.66 9.71, -113.22 31.66 C-107.78 53.61, -60.21 81.01, -40.81 97.44 C-21.41 113.86, -3.41 117.81, 3.17 130.21 C9.74 142.6, -1.23 154.28, -1.36 171.81 C-1.49 189.33, -1.93 209.22, 2.37 235.33 C6.66 261.44, 22.11 304.4, 24.41 328.49 C26.7 352.57, 10.82 370.38, 16.16 379.84 C21.5 389.3, 35.25 383.06, 56.44 385.23 C77.62 387.39, 133.43 397.63, 143.29 392.82 C153.15 388.01, 128.11 368.01, 115.59 356.36 C103.07 344.71, 76.75 341.62, 68.18 322.92 C59.61 304.22, 64.22 267.48, 64.17 244.16 C64.12 220.85, 67.66 199.38, 67.88 183.03 C68.09 166.67, 64.43 158.52, 65.44 146.03 C66.44 133.53, 84.27 132.64, 73.89 108.07 C63.51 83.5, 16.14 16.25, 3.14 -1.4" stroke="#495057" stroke-width="4" fill="none"></path></g></g><g stroke-linecap="round"><g transform="translate(847.0121973433083 846.1335695961659) rotate(0 -18.188466645116932 167.1906748397821)"><path d="M-2.15 -0.29 C3.21 4.2, 18.52 16.86, 30.77 26.49 C43.02 36.12, 62.51 40.73, 71.32 57.48 C80.14 74.23, 98.72 102.06, 83.67 126.99 C68.61 151.92, 3.82 186.75, -19 207.07 C-41.83 227.4, -54.16 228.72, -53.29 248.92 C-52.42 269.12, -14.32 313.65, -13.8 328.26 C-13.28 342.88, -40.6 336.5, -50.16 336.61 C-59.73 336.72, -63.37 336.37, -71.2 328.94 C-79.03 321.52, -87.7 305.88, -97.13 292.04 C-106.57 278.21, -132.11 259.97, -127.81 245.92 C-123.52 231.88, -85.48 221.02, -71.39 207.75 C-57.3 194.48, -51.74 181.15, -43.26 166.32 C-34.77 151.48, -31.23 130.08, -20.5 118.74 C-9.76 107.4, 18.02 117.83, 21.14 98.27 C24.26 78.72, 2.01 18.07, -1.75 1.42 M1.88 -2.92 C7.14 0.73, 16.94 12.53, 29.42 21.9 C41.9 31.28, 67.47 35.63, 76.77 53.33 C86.08 71.03, 100.44 102.3, 85.24 128.13 C70.05 153.96, 9.35 187.36, -14.42 208.32 C-38.18 229.28, -57.62 234.19, -57.35 253.89 C-57.09 273.58, -13.65 312.98, -12.82 326.48 C-11.99 339.97, -42.23 334.84, -52.37 334.87 C-62.51 334.9, -66.39 334.06, -73.64 326.68 C-80.88 319.3, -87.03 303.78, -95.83 290.61 C-104.63 277.44, -130.04 261.64, -126.42 247.66 C-122.8 233.69, -87.99 220.51, -74.12 206.75 C-60.25 192.99, -53.14 180.02, -43.21 165.11 C-33.28 150.19, -25.27 128.51, -14.55 117.28 C-3.83 106.05, 18.73 117.85, 21.11 97.72 C23.49 77.59, 2.68 12.91, -0.26 -3.49" stroke="#495057" stroke-width="4" fill="none"></path></g></g><g stroke-linecap="round"><g transform="translate(1071.8096293247959 702.996239280754) rotate(0 8.14443434036184 126.38469128124541)"><path d="M-0.29 1.64 C-8.14 9.49, -42.2 28.91, -47.56 44.98 C-52.93 61.05, -41.67 80.16, -32.47 98.06 C-23.27 115.96, -2.93 135.35, 7.64 152.39 C18.21 169.42, 31.14 188.14, 30.94 200.26 C30.74 212.38, 9.96 216.41, 6.42 225.11 C2.89 233.8, 3.39 248.61, 9.73 252.42 C16.07 256.22, 34.97 255.53, 44.46 247.95 C53.96 240.36, 66.28 219.73, 66.7 206.91 C67.13 194.09, 54.28 189.24, 47.01 171.04 C39.74 152.83, 29.43 117.88, 23.09 97.68 C16.76 77.47, 12.63 66.39, 9.01 49.8 C5.39 33.2, 3.16 6.64, 1.35 -1.9 M-3.9 0.06 C-12.01 8.36, -44.54 31.65, -49.37 47.23 C-54.21 62.81, -42.25 75.66, -32.9 93.53 C-23.54 111.39, -3.35 137.7, 6.76 154.41 C16.88 171.12, 27.49 182.5, 27.79 193.78 C28.08 205.07, 12.5 212.84, 8.54 222.12 C4.57 231.4, -2.87 245.03, 4 249.45 C10.87 253.88, 39.79 254.93, 49.75 248.65 C59.71 242.37, 63.97 224.78, 63.76 211.77 C63.54 198.76, 55.2 189.13, 48.45 170.61 C41.7 152.08, 30.39 120.99, 23.26 100.61 C16.13 80.22, 9.12 64.44, 5.68 48.3 C2.24 32.16, 2.89 12.27, 2.63 3.76" stroke="#495057" stroke-width="4" fill="none"></path></g></g><g stroke-linecap="round"><g transform="translate(897.2003787054605 625.9589643015477) rotate(44.72443220984423 8.753187183791397 125.42134754162134)"><path d="M1.64 0.79 C-7.8 5.2, -54.13 14.88, -58.75 26.2 C-63.38 37.52, -38.43 48.51, -26.12 68.69 C-13.81 88.87, 3.7 126, 15.11 147.29 C26.51 168.58, 42.87 183.72, 42.3 196.42 C41.73 209.12, 15.22 214.93, 11.67 223.51 C8.12 232.08, 13.3 245.86, 20.98 247.86 C28.67 249.86, 49.19 243.12, 57.8 235.52 C66.41 227.91, 73.89 219.4, 72.62 202.23 C71.35 185.07, 55.93 153.23, 50.17 132.52 C44.4 111.82, 43.2 95.04, 38.01 78 C32.82 60.96, 25.68 43.6, 19.03 30.29 C12.38 16.98, 1.52 2.95, -1.9 -1.86 M-0.92 -1.25 C-9.32 2.46, -49.4 10.64, -53.73 22.57 C-58.07 34.5, -38.41 49.06, -26.94 70.34 C-15.46 91.61, 3.94 129.25, 15.11 150.22 C26.28 171.18, 40.18 184.09, 40.07 196.12 C39.96 208.16, 17.36 213.07, 14.47 222.44 C11.58 231.82, 15.65 250.18, 22.71 252.39 C29.78 254.6, 47.87 244.68, 56.89 235.71 C65.9 226.75, 77.51 216.08, 76.8 198.6 C76.09 181.13, 58.86 150.58, 52.62 130.87 C46.38 111.15, 44.17 97.13, 39.37 80.33 C34.57 63.52, 30.8 42.77, 23.84 30.02 C16.88 17.27, 2.24 8.54, -2.4 3.82" stroke="#495057" stroke-width="4" fill="none"></path></g></g><g stroke-linecap="round"><g transform="translate(910.9343741008306 619.1197563234798) rotate(328.00889983119845 84.02229078397181 -13.65525282376592)"><path d="M0.79 -2.55 C5.23 4.28, 11.4 38.36, 26.37 42.58 C41.35 46.8, 66.02 34.23, 90.63 22.78 C115.24 11.33, 167 -10.58, 174.02 -26.14 C181.05 -41.69, 161.68 -75.13, 132.78 -70.54 C103.87 -65.96, 19.02 -17.63, 0.58 1.39 C-17.87 20.4, 17.93 37.12, 22.11 43.52 M-2.23 2.24 C2.1 8.13, 9.14 34.72, 25.51 38.56 C41.89 42.41, 71.1 36.89, 96 25.31 C120.9 13.73, 168.14 -15.02, 174.93 -30.93 C181.72 -46.84, 166.43 -75.17, 136.72 -70.15 C107.01 -65.14, 15.67 -19.53, -3.34 -0.86 C-22.34 17.81, 18.09 35.3, 22.69 41.86" stroke="#495057" stroke-width="4" fill="none"></path></g></g><g stroke-linecap="round"><g transform="translate(1668.6609503037644 365.5644223402005) rotate(338.75055088121155 21.885373381317095 -73.83700239266682)"><path d="M-0.09 -0.35 C10.16 -0.81, 47.66 4.72, 63.2 -4.59 C78.74 -13.91, 84.78 -45.07, 93.14 -56.25 C101.5 -67.43, 123.19 -56.7, 113.35 -71.69 C103.51 -86.67, 61.23 -136.91, 34.11 -146.16 C6.98 -155.4, -32.37 -146.45, -49.4 -127.14 C-66.43 -107.83, -76.22 -51.61, -68.06 -30.28 C-59.9 -8.95, -11.92 -3.76, -0.42 0.83 M-3.59 -3.02 C6.17 -2.87, 44.09 7.12, 61.13 -1.21 C78.18 -9.54, 90.13 -40.35, 98.68 -52.99 C107.22 -65.63, 122.45 -61.8, 112.42 -77.06 C102.38 -92.31, 66.24 -135.92, 38.45 -144.52 C10.67 -153.13, -36.59 -147.44, -54.31 -128.69 C-72.04 -109.94, -76.41 -53.55, -67.87 -32.02 C-59.33 -10.49, -13.97 -5.06, -3.07 0.47" stroke="#495057" stroke-width="4" fill="none"></path></g></g><g stroke-linecap="round"><g transform="translate(2312.666739305786 260.1189528638238) rotate(331.54989658388854 20.544970900604767 -78.70955379852535)"><path d="M-1.15 -0.18 C9.84 -1.17, 50.37 4.43, 66.62 -5.35 C82.88 -15.13, 88.61 -46.87, 96.38 -58.87 C104.15 -70.86, 123.05 -61.37, 113.22 -77.33 C103.39 -93.29, 65.14 -144.82, 37.41 -154.64 C9.69 -164.46, -35.85 -156.39, -53.13 -136.25 C-70.4 -116.12, -75.29 -56.46, -66.23 -33.84 C-57.18 -11.22, -9.96 -6.57, 1.22 -0.51 M3.42 -2.75 C14.09 -3.4, 49.63 6.55, 65.07 -2.3 C80.52 -11.14, 88.1 -43.83, 96.08 -55.83 C104.06 -67.83, 123.27 -57.88, 112.95 -74.32 C102.63 -90.76, 61.37 -144.95, 34.16 -154.46 C6.94 -163.97, -32.61 -150.97, -50.35 -131.36 C-68.09 -111.75, -80.59 -58.44, -72.29 -36.81 C-63.99 -15.18, -12.15 -7.83, -0.55 -1.6" stroke="#495057" stroke-width="4" fill="none"></path></g></g><g stroke-linecap="round"><g transform="translate(2847.3203312611367 249.9288060877235) rotate(331.54989658388854 29.6361711017139 -85.43303184898417)"><path d="M2 -2.77 C13.54 -4.05, 50.47 3.24, 68.11 -6.19 C85.75 -15.62, 99.92 -43.44, 107.85 -59.35 C115.78 -75.27, 123.8 -84.36, 115.69 -101.7 C107.57 -119.03, 85.3 -153.02, 59.16 -163.36 C33.03 -173.7, -21.84 -180.36, -41.11 -163.74 C-60.37 -147.12, -63.33 -90.89, -56.42 -63.61 C-49.52 -36.34, -8.62 -10.73, 0.33 -0.1 M-0.36 1.9 C10.95 0.81, 48.36 7.45, 66.12 -3.51 C83.87 -14.46, 97.94 -46.68, 106.16 -63.84 C114.38 -81, 123.8 -89.91, 115.46 -106.46 C107.11 -123.02, 81.79 -154.44, 56.11 -163.18 C30.44 -171.92, -19.84 -176.34, -38.59 -158.9 C-57.33 -141.47, -62.48 -84.91, -56.37 -58.59 C-50.26 -32.26, -11.39 -10.22, -1.92 -0.96" stroke="#495057" stroke-width="4" fill="none"></path></g></g><g stroke-linecap="round"><g transform="translate(1764.631631420425 296.730664495998) rotate(335.05501370726887 -14.796067446994584 38.72475302575248)"><path d="M-0.35 0.31 C3.73 3.53, 16.61 10.77, 22.67 19.2 C28.72 27.63, 37.31 43.87, 35.99 50.89 C34.67 57.91, 22.74 56.77, 14.76 61.31 C6.77 65.85, -3.13 79.03, -11.93 78.12 C-20.73 77.21, -30.03 61.03, -38.04 55.84 C-46.05 50.66, -60.6 53.68, -60 47 C-59.41 40.32, -44.01 23.28, -34.46 15.78 C-24.92 8.27, -8.49 4.93, -2.72 1.96 M-3.99 -1.98 C-0.16 1.51, 13.79 12.46, 20.18 21.53 C26.57 30.61, 35.03 45.55, 34.33 52.48 C33.64 59.41, 24.18 58.61, 16.01 63.1 C7.84 67.59, -4.95 79.83, -14.69 79.43 C-24.43 79.03, -33.94 66.67, -42.44 60.7 C-50.94 54.73, -66.69 51.13, -65.69 43.6 C-64.69 36.06, -47.47 22.8, -36.44 15.49 C-25.4 8.19, -5.91 3.05, 0.5 -0.24" stroke="#495057" stroke-width="4" fill="none"></path></g></g><g stroke-linecap="round"><g transform="translate(2413.9072043991073 200.32487160809285) rotate(327.60454273378633 -18.699430869129174 29.3525880330248)"><path d="M-0.18 1.26 C2.67 2.92, 13.06 3.95, 17.68 8.77 C22.31 13.58, 29.61 24.5, 27.55 30.14 C25.49 35.78, 13.43 37.53, 5.33 42.62 C-2.76 47.72, -11.81 60.37, -21.02 60.7 C-30.24 61.04, -42.63 49.95, -49.98 44.61 C-57.33 39.27, -66.84 34.28, -65.1 28.67 C-63.37 23.05, -50.84 15.61, -39.57 10.93 C-28.3 6.25, -4.26 2.15, 2.5 0.58 M-3.73 -0.52 C-1.39 0.53, 9.97 -0.22, 14.87 5.26 C19.77 10.75, 27.09 25.7, 25.67 32.4 C24.24 39.09, 13.37 40.66, 6.32 45.44 C-0.72 50.22, -7.56 61.44, -16.6 61.07 C-25.65 60.7, -40.14 49.04, -47.94 43.22 C-55.73 37.4, -64.32 31.59, -63.38 26.15 C-62.43 20.71, -52.82 15.33, -42.27 10.58 C-31.72 5.83, -7.69 -0.82, -0.09 -2.37" stroke="#495057" stroke-width="4" fill="none"></path></g></g><g stroke-linecap="round"><g transform="translate(2948.7584594348973 185.47311998648638) rotate(317.79089081595083 -24.2594124507591 36.64343257454681)"><path d="M-2.77 0.45 C-0.12 2.17, 13.24 5.78, 17.36 12.26 C21.48 18.74, 23.66 32.72, 21.93 39.32 C20.2 45.92, 14.15 45.72, 6.99 51.88 C-0.16 58.03, -12.2 75.29, -21.01 76.24 C-29.82 77.19, -37.24 65.8, -45.88 57.56 C-54.53 49.32, -72.11 36.51, -72.91 26.8 C-73.71 17.09, -62.87 4.07, -50.69 -0.71 C-38.51 -5.49, -8.58 -1.95, 0.18 -1.87 M0.92 -1.77 C4.35 0.26, 19.44 8.77, 22.82 16 C26.19 23.23, 23.49 35.13, 21.16 41.61 C18.83 48.1, 15.13 49.11, 8.84 54.9 C2.55 60.69, -7.8 75.12, -16.59 76.35 C-25.38 77.58, -34.69 71.04, -43.9 62.28 C-53.11 53.52, -70.28 33.24, -71.83 23.8 C-73.37 14.36, -64.53 9.2, -53.17 5.65 C-41.81 2.1, -11.88 3.67, -3.67 2.48" stroke="#495057" stroke-width="4" fill="none"></path></g></g><g stroke-linecap="round"><g transform="translate(1721.4415729322382 389.83295661719444) rotate(329.2539449673719 -123.37955210560858 170.8648130556636)"><path d="M0.31 -0.46 C-3.13 1.36, -6.68 7.55, -20.73 10.52 C-34.78 13.49, -64.56 9.55, -84 17.37 C-103.44 25.19, -121.91 42.79, -137.39 57.43 C-152.86 72.07, -164.25 88.34, -176.85 105.2 C-189.45 122.06, -201.84 143.05, -212.98 158.57 C-224.11 174.1, -226.61 179.43, -243.66 198.36 C-260.71 217.3, -317.29 247.92, -315.28 272.2 C-313.26 296.49, -271.85 353.14, -231.57 344.05 C-191.29 334.96, -108.11 242.83, -73.61 217.66 C-39.12 192.48, -40.34 204.31, -24.59 193.01 C-8.85 181.71, 9.32 169.84, 20.84 149.87 C32.36 129.89, 36.46 89.2, 44.51 73.17 C52.57 57.15, 76.27 65.53, 69.16 53.7 C62.05 41.88, 13.59 11.62, 1.85 2.22 M-2.96 -3.17 C-5.54 -0.82, -3 11.69, -15.62 14.3 C-28.24 16.91, -58.35 6.2, -78.69 12.5 C-99.02 18.81, -120.75 36.35, -137.62 52.11 C-154.5 67.86, -167.7 89.45, -179.93 107.03 C-192.15 124.6, -200.57 142.79, -210.97 157.55 C-221.38 172.32, -224.67 175.47, -242.37 195.64 C-260.07 215.81, -318.5 254.36, -317.18 278.56 C-315.86 302.77, -275.16 351.26, -234.45 340.87 C-193.74 330.47, -108.19 241.68, -72.9 216.22 C-37.62 190.75, -37.83 199.4, -22.75 188.09 C-7.67 176.79, 6.09 167.74, 17.59 148.38 C29.08 129.02, 37.69 87.55, 46.2 71.93 C54.72 56.3, 75.79 66.25, 68.69 54.62 C61.6 42.98, 15.01 11.42, 3.63 2.12" stroke="#495057" stroke-width="4" fill="none"></path></g></g><g stroke-linecap="round"><g transform="translate(2423.488276473371 314.7740361689023) rotate(317.97684448780456 -142.9150937716404 165.80355971018503)"><path d="M1.26 -1.06 C-1.26 0.73, -1.75 7.41, -16.29 10.51 C-30.83 13.61, -65.21 9.79, -85.96 17.53 C-106.72 25.27, -124.22 42.34, -140.82 56.95 C-157.43 71.57, -172.91 87.65, -185.58 105.23 C-198.25 122.81, -205.85 145.85, -216.85 162.44 C-227.85 179.03, -233.09 183.82, -251.59 204.79 C-270.08 225.75, -327.76 266.57, -327.82 288.23 C-327.89 309.89, -289.4 341.69, -251.98 334.73 C-214.56 327.76, -138.53 266.36, -103.29 246.45 C-68.05 226.53, -60.41 229.94, -40.56 215.24 C-20.71 200.53, 2.75 180.08, 15.8 158.21 C28.85 136.33, 34.23 102.72, 37.75 83.98 C41.27 65.25, 43.39 59.86, 36.91 45.78 C30.42 31.71, 4.64 7.15, -1.17 -0.45 M-1.49 -4.1 C-4.04 -1.83, -2.5 9.88, -17.02 14.07 C-31.54 18.26, -68.12 13.59, -88.62 21.05 C-109.13 28.51, -124.63 44.85, -140.03 58.82 C-155.42 72.78, -167.46 87.96, -180.97 104.86 C-194.48 121.75, -209.68 144.11, -221.09 160.19 C-232.5 176.27, -231.3 179.9, -249.41 201.33 C-267.53 222.77, -328.75 267.01, -329.78 288.78 C-330.81 310.56, -293.8 339.13, -255.61 331.99 C-217.42 324.85, -136.68 265.18, -100.64 245.95 C-64.6 226.71, -59.4 231.17, -39.36 216.56 C-19.32 201.95, 7.86 180.71, 19.61 158.28 C31.36 135.84, 27.31 100.9, 31.16 81.96 C35.01 63.02, 48.09 58.62, 42.72 44.63 C37.36 30.63, 6.6 4.88, -1.03 -2.02" stroke="#495057" stroke-width="4" fill="none"></path></g></g><g stroke-linecap="round"><g transform="translate(3021.966902733463 306.97957868923015) rotate(311.8054814280601 -153.19904525665515 171.6754955780907)"><path d="M0.45 -1.74 C-7.53 -1.23, -30.61 -4, -45.9 0.27 C-61.18 4.55, -74 9.46, -91.26 23.9 C-108.53 38.34, -129.47 65.56, -149.49 86.92 C-169.5 108.29, -192.03 132.12, -211.37 152.07 C-230.71 172.01, -246.28 193.58, -265.52 206.61 C-284.76 219.64, -313.29 216.01, -326.78 230.24 C-340.28 244.46, -354.14 272.6, -346.5 291.95 C-338.86 311.31, -322.79 355.12, -280.94 346.38 C-239.08 337.64, -141 269.33, -95.36 239.5 C-49.71 209.67, -25.13 193.85, -7.07 167.38 C10.99 140.92, 4.76 100.31, 12.99 80.72 C21.21 61.14, 44.57 63.53, 42.28 49.9 C40 36.27, 6.78 7.4, -0.72 -1.06 M-2.74 3.49 C-11.26 3.46, -32.83 -6.39, -48.02 -3.7 C-63.21 -1.01, -77.14 4.22, -93.89 19.64 C-110.63 35.05, -129.63 66.78, -148.48 88.78 C-167.33 110.78, -187.82 132.48, -207.01 151.64 C-226.21 170.79, -243.97 191.15, -263.65 203.72 C-283.33 216.28, -312.07 212.42, -325.09 227.01 C-338.11 241.59, -349.73 271.72, -341.76 291.24 C-333.79 310.77, -318.6 352.97, -277.26 344.13 C-235.91 335.3, -137.66 267.28, -93.69 238.22 C-49.72 209.16, -30.74 195.96, -13.45 169.78 C3.85 143.59, 1.9 101.33, 10.08 81.13 C18.26 60.93, 37.77 62.47, 35.63 48.6 C33.48 34.73, 3.74 6.46, -2.77 -2.08" stroke="#495057" stroke-width="4" fill="none"></path></g></g><g stroke-linecap="round"><g transform="translate(1633.7808513920327 685.2936173609112) rotate(359.0391178944761 21.134901844767683 225.2671221127688)"><path d="M-0.46 -2.38 C-15.17 -9.56, -65.35 -49.68, -88.66 -42.73 C-111.98 -35.79, -147.64 10.98, -140.33 39.31 C-133.02 67.63, -68.91 106.74, -44.79 127.21 C-20.67 147.68, -2.35 147.62, 4.38 162.11 C11.11 176.6, -4.72 192.55, -4.41 214.15 C-4.09 235.76, 1.18 258.27, 6.25 291.75 C11.33 325.23, 24.09 384.67, 26.03 415.05 C27.97 445.44, 9.69 461.68, 17.9 474.06 C26.1 486.43, 47.72 486.88, 75.24 489.31 C102.76 491.74, 172.25 495.34, 183.01 488.64 C193.77 481.93, 155.92 461.81, 139.8 449.07 C123.68 436.34, 95.81 434.92, 86.28 412.24 C76.75 389.55, 81.98 342.8, 82.63 312.97 C83.28 283.14, 89.83 255.25, 90.16 233.26 C90.49 211.28, 83.75 197.05, 84.63 181.07 C85.5 165.09, 109.84 167.45, 95.39 137.39 C80.94 107.33, 13.38 23.97, -2.09 0.72 M-4.15 2.5 C-19.18 -4.48, -67.86 -47.14, -90.75 -40.62 C-113.64 -34.11, -149.35 13.13, -141.47 41.6 C-133.6 70.07, -67.38 110.19, -43.5 130.21 C-19.62 150.23, -4.06 148.16, 1.81 161.7 C7.68 175.25, -9.35 190.24, -8.28 211.47 C-7.21 232.7, 1.71 255.12, 8.22 289.09 C14.73 323.07, 29.8 383.78, 30.77 415.31 C31.74 446.85, 6.38 465.99, 14.03 478.33 C21.68 490.66, 49.6 487.21, 76.68 489.32 C103.76 491.44, 165.2 497.73, 176.52 491.04 C187.85 484.36, 159.45 462.48, 144.62 449.22 C129.79 435.96, 97.9 434.1, 87.52 411.48 C77.14 388.87, 81.57 343.56, 82.34 313.52 C83.11 283.48, 91.6 253.01, 92.15 231.24 C92.69 209.46, 85.42 198.12, 85.61 182.86 C85.8 167.61, 107.15 169.83, 93.28 139.69 C79.41 109.54, 17.81 25.71, 2.38 1.97" stroke="#495057" stroke-width="4" fill="none"></path></g></g><g stroke-linecap="round"><g transform="translate(2330.9703517707576 636.4272505703409) rotate(359.0391178944761 -10.839949962508399 260.17853757386786)"><path d="M-1.06 2.78 C-13.6 -1.63, -55.54 -30.48, -75.47 -25.2 C-95.41 -19.91, -117.39 10.92, -120.66 34.51 C-123.94 58.09, -107.36 86.01, -95.1 116.31 C-82.85 146.6, -54.25 190.46, -47.13 216.27 C-40.02 242.08, -53.12 247.95, -52.43 271.17 C-51.75 294.39, -48.13 323.96, -43.03 355.59 C-37.94 387.21, -23.63 431.51, -21.87 460.9 C-20.11 490.29, -38.73 518.14, -32.48 531.94 C-26.24 545.74, -6.3 542.12, 15.61 543.7 C37.52 545.28, 89.9 548.59, 98.96 541.44 C108.02 534.28, 82.82 515.21, 69.98 500.77 C57.13 486.33, 28.93 479.01, 21.9 454.8 C14.87 430.59, 25.09 383.31, 27.77 355.51 C30.46 327.72, 35.54 306.84, 38.03 288.02 C40.53 269.21, 42.29 256.96, 42.75 242.61 C43.2 228.26, 49.8 243.55, 40.76 201.91 C31.72 160.27, -2.69 28.09, -11.49 -7.23 M3.57 1.82 C-9.35 -2.37, -56.84 -28.42, -77.78 -22.42 C-98.72 -16.42, -119.15 14.37, -122.06 37.83 C-124.98 61.29, -108.4 88.28, -95.27 118.36 C-82.13 148.43, -50.99 193.09, -43.26 218.26 C-35.53 243.43, -49.14 246.94, -48.89 269.37 C-48.65 291.81, -46.12 321.03, -41.79 352.87 C-37.47 384.71, -23.92 430.97, -22.93 460.41 C-21.95 489.85, -42.73 515.74, -35.91 529.52 C-29.09 543.29, -4.45 540.95, 17.99 543.07 C40.43 545.2, 90.43 549.23, 98.71 542.27 C107 535.3, 80.44 514.94, 67.71 501.28 C54.99 487.62, 29.41 484.81, 22.36 460.33 C15.31 435.86, 22.71 383.18, 25.41 354.42 C28.11 325.67, 35.25 305.87, 38.56 287.81 C41.88 269.74, 44.17 261.24, 45.28 246.02 C46.4 230.8, 54.96 238.45, 45.24 196.48 C35.53 154.51, -3.11 28.67, -13 -5.81" stroke="#495057" stroke-width="4" fill="none"></path></g></g><g stroke-linecap="round"><g transform="translate(2956.551236907285 579.2002597978608) rotate(353.35512915680283 4.334644454545014 291.4100202683317)"><path d="M-1.74 0.21 C-15.01 -4.62, -60.43 -35.13, -82.4 -28.53 C-104.37 -21.93, -129.57 12.93, -133.55 39.8 C-137.53 66.68, -122.62 95.62, -106.28 132.74 C-89.95 169.86, -45.47 230.23, -35.54 262.5 C-25.62 294.77, -47.6 302.37, -46.75 326.35 C-45.9 350.32, -35.66 375.23, -30.43 406.37 C-25.19 437.5, -14.8 483.7, -15.33 513.13 C-15.86 542.56, -34.11 568.07, -33.6 582.96 C-33.08 597.86, -23.28 599.5, -12.25 602.51 C-1.22 605.52, 15.62 599.48, 32.57 601 C49.52 602.53, 71.19 612.3, 89.46 611.68 C107.73 611.06, 140.79 603.65, 142.19 597.28 C143.58 590.91, 110.94 579.08, 97.83 573.44 C84.73 567.8, 73.17 568.71, 63.56 563.45 C53.95 558.19, 45.69 568.22, 40.17 541.91 C34.64 515.6, 29.94 441.09, 30.42 405.62 C30.91 370.14, 38.58 350.98, 43.07 329.06 C47.56 307.14, 56.97 291.1, 57.36 274.11 C57.76 257.13, 57.43 274.35, 45.44 227.14 C33.45 179.93, -4.56 30.36, -14.57 -9.14 M2.51 -2.15 C-10.71 -6.67, -60.83 -33.3, -83.6 -25.72 C-106.37 -18.14, -130.29 16.63, -134.09 43.34 C-137.9 70.05, -123.51 98.1, -106.45 134.53 C-89.39 170.97, -42.16 230.37, -31.73 261.96 C-21.29 293.54, -44.31 299.34, -43.85 324.07 C-43.39 348.8, -33.33 379.14, -28.96 410.35 C-24.6 441.56, -16.4 483.11, -17.66 511.31 C-18.92 539.51, -37.69 564.28, -36.52 579.55 C-35.36 594.82, -22.31 598.92, -10.65 602.95 C1 606.98, 17.03 602.23, 33.39 603.75 C49.76 605.28, 69.2 613.59, 87.53 612.12 C105.86 610.65, 142.03 600.27, 143.37 594.94 C144.72 589.62, 108.85 585.4, 95.6 580.15 C82.34 574.9, 73.93 569.56, 63.87 563.42 C53.81 557.29, 40.06 569.59, 35.24 543.36 C30.43 517.13, 34.16 441.45, 34.96 406.05 C35.76 370.64, 36.84 353.06, 40.03 330.93 C43.23 308.81, 53.28 289.91, 54.13 273.28 C54.98 256.64, 56.89 278.65, 45.14 231.14 C33.39 183.63, -6.64 28.96, -16.36 -11.78" stroke="#495057" stroke-width="4" fill="none"></path></g></g><g stroke-linecap="round"><g transform="translate(1741.6206313868206 527.6217888968681) rotate(343.7328029239761 10.161064365960101 154.29272173620154)"><path d="M-2.38 0.28 C-11.26 9.83, -47.38 39.08, -52.94 56.83 C-58.5 74.58, -44.01 84.21, -35.74 106.79 C-27.48 129.37, -14.15 171.07, -3.36 192.32 C7.44 213.56, 24.37 221.33, 29.02 234.28 C33.67 247.23, 23.51 258.11, 24.55 270.02 C25.59 281.94, 27.19 301.83, 35.25 305.78 C43.32 309.73, 67.95 304.29, 72.94 293.74 C77.93 283.19, 68.8 257.9, 65.22 242.5 C61.64 227.09, 56.16 223.12, 51.45 201.31 C46.73 179.5, 44.08 135.55, 36.91 111.64 C29.74 87.72, 14.2 75.99, 8.42 57.81 C2.63 39.62, 3.29 11.78, 2.19 2.52 M1.52 -2.04 C-6.57 6.71, -41.4 35.15, -48.05 52.49 C-54.7 69.82, -45.98 79.52, -38.37 101.97 C-30.76 124.42, -14.25 166.18, -2.38 187.19 C9.49 208.19, 27.85 214.52, 32.86 228 C37.86 241.47, 26.92 254.39, 27.66 268.02 C28.39 281.65, 29.97 305.6, 37.29 309.77 C44.61 313.93, 66.33 303.4, 71.58 293.02 C76.84 282.64, 73.12 262.73, 68.81 247.5 C64.49 232.27, 50.88 223.97, 45.7 201.63 C40.53 179.3, 44.32 137.5, 37.75 113.48 C31.17 89.45, 11.87 76.09, 6.23 57.5 C0.59 38.92, 4.76 11.03, 3.92 1.94" stroke="#495057" stroke-width="4" fill="none"></path></g></g><g stroke-linecap="round"><g transform="translate(2426.747741362685 482.60835970662924) rotate(333.56689041975363 2.868660886986163 88.84682758989669)"><path d="M2.78 -0.13 C-4.73 6.34, -38.69 26.88, -43.76 37.77 C-48.83 48.67, -33.21 55.76, -27.62 65.27 C-22.04 74.77, -17.57 84.43, -10.26 94.83 C-2.94 105.23, 12.88 118.19, 16.26 127.68 C19.65 137.18, 9.84 142.91, 10.06 151.8 C10.27 160.68, 11.18 178.02, 17.53 180.98 C23.88 183.93, 43.39 177, 48.13 169.51 C52.87 162.02, 49.47 146.3, 45.96 136.04 C42.45 125.78, 30.97 118.27, 27.07 107.95 C23.18 97.63, 24.82 86.39, 22.59 74.12 C20.35 61.84, 17.78 46.85, 13.66 34.28 C9.54 21.71, 0.34 4.49, -2.13 -1.29 M0.84 -2.67 C-5.85 3.01, -33.2 21.45, -38.21 33.17 C-43.22 44.89, -33.88 57.13, -29.21 67.63 C-24.55 78.13, -17.41 85.95, -10.23 96.14 C-3.05 106.34, 11.25 119.99, 13.86 128.81 C16.46 137.63, 4.47 140.67, 5.41 149.06 C6.35 157.45, 12.74 175.79, 19.51 179.16 C26.28 182.52, 42.14 176.87, 46.03 169.23 C49.92 161.6, 45.64 143.9, 42.85 133.34 C40.07 122.78, 32.83 116.63, 29.33 105.88 C25.83 95.14, 24.76 80.98, 21.85 68.87 C18.93 56.76, 15.93 45.34, 11.83 33.2 C7.73 21.07, -0.2 1.78, -2.75 -3.94" stroke="#495057" stroke-width="4" fill="none"></path></g></g><g stroke-linecap="round"><g transform="translate(1506.6644291985313 550.276705274609) rotate(37.901392985564016 9.601599933158923 139.0895587545529)"><path d="M-1.44 -2.8 C-11.49 1.69, -57.51 10.87, -62.48 24.58 C-67.45 38.28, -44.62 56.99, -31.24 79.45 C-17.87 101.91, 5.28 137.86, 17.79 159.33 C30.29 180.79, 40.83 193.14, 43.78 208.25 C46.73 223.36, 34.68 237.85, 35.48 249.97 C36.28 262.09, 42.12 279.72, 48.58 280.98 C55.05 282.24, 69.24 266.75, 74.26 257.55 C79.29 248.34, 81.94 244.11, 78.71 225.77 C75.48 207.43, 61.65 170.43, 54.87 147.49 C48.1 124.54, 43.62 107.02, 38.07 88.12 C32.51 69.23, 27.77 48.48, 21.56 34.1 C15.35 19.72, 4.31 7.75, 0.8 1.85 M-4.73 1.85 C-15 6.91, -59.45 13.87, -64.06 27.38 C-68.66 40.9, -46.23 60.75, -32.34 82.95 C-18.45 105.16, 6.93 139.61, 19.28 160.6 C31.62 181.6, 39.85 194.37, 41.75 208.95 C43.64 223.52, 29.47 236.38, 30.62 248.04 C31.77 259.69, 41.74 277.6, 48.63 278.87 C55.51 280.13, 66.19 264.85, 71.93 255.64 C77.66 246.42, 86.78 241.78, 83.03 223.59 C79.28 205.4, 56.89 169.94, 49.44 146.5 C41.99 123.06, 43.42 101.66, 38.33 82.96 C33.25 64.25, 26.3 47.97, 18.92 34.29 C11.54 20.62, -2.79 7.03, -5.93 0.91" stroke="#495057" stroke-width="4" fill="none"></path></g></g><g stroke-linecap="round"><g transform="translate(2156.040121293322 466.00603550336655) rotate(37.901392985564016 10.559764198837001 147.5284075941027)"><path d="M-0.13 -1.57 C-10.87 2.68, -59.76 14.15, -65.46 28.26 C-71.15 42.37, -48 58.65, -34.31 83.07 C-20.62 107.48, 3.27 151.26, 16.68 174.76 C30.09 198.27, 42.55 208.77, 46.16 224.12 C49.77 239.46, 36.17 254.42, 38.33 266.84 C40.5 279.25, 51.86 296.62, 59.14 298.62 C66.41 300.62, 77.21 288.62, 81.97 278.82 C86.73 269.03, 92.05 260.54, 87.7 239.85 C83.35 219.15, 62.91 178.83, 55.86 154.63 C48.82 130.43, 50.85 115.1, 45.43 94.65 C40.01 74.2, 31.13 47.92, 23.34 31.95 C15.56 15.98, 2.67 3.81, -1.29 -1.17 M-3.65 3.75 C-14.59 9.7, -61.75 18.46, -67.29 32.1 C-72.82 45.75, -50.74 62.67, -36.86 85.62 C-22.98 108.57, 2.68 146.45, 15.97 169.79 C29.27 193.14, 38.66 209.86, 42.89 225.7 C47.13 241.54, 39.64 253.17, 41.39 264.84 C43.14 276.52, 46.92 293.42, 53.37 295.76 C59.82 298.09, 74.91 288.64, 80.07 278.85 C85.22 269.06, 88.22 256.72, 84.32 237.02 C80.42 217.33, 62.85 185.24, 56.68 160.71 C50.5 136.18, 53.38 111.66, 47.25 89.84 C41.13 68.02, 28.05 45.39, 19.93 29.79 C11.81 14.19, 2.26 0.76, -1.46 -3.76" stroke="#495057" stroke-width="4" fill="none"></path></g></g><g stroke-linecap="round"><g transform="translate(2912.732628614025 431.26873150333813) rotate(314.9203154310679 33.141409498171015 130.92693899103438)"><path d="M1.92 -1.5 C-6.77 1.23, -51.23 -0.26, -53.84 16.63 C-56.46 33.52, -29.13 75.08, -13.77 99.83 C1.59 124.57, 29.13 145.61, 38.31 165.1 C47.5 184.59, 40.23 203.83, 41.33 216.75 C42.43 229.66, 38.87 235.4, 44.89 242.6 C50.92 249.81, 65.85 257.93, 77.48 259.96 C89.11 261.98, 108.54 261.55, 114.69 254.76 C120.84 247.96, 119.88 232.4, 114.39 219.19 C108.9 205.97, 91.43 195.37, 81.74 175.45 C72.06 155.53, 64.49 121.8, 56.28 99.67 C48.07 77.54, 42.04 59.74, 32.48 42.68 C22.93 25.61, 4.5 3.99, -1.06 -2.73 M-0.48 3.85 C-9.17 5.68, -52.17 -4.33, -54.81 12.04 C-57.45 28.42, -31.72 76.42, -16.33 102.12 C-0.93 127.82, 27.15 146.95, 37.55 166.24 C47.94 185.53, 44.29 204.33, 46.06 217.85 C47.83 231.36, 42.66 239.55, 48.17 247.31 C53.68 255.07, 68.24 263.32, 79.1 264.4 C89.95 265.49, 106.66 261.63, 113.29 253.8 C119.92 245.98, 123.81 230.59, 118.87 217.43 C113.93 204.26, 95.13 195.25, 83.62 174.81 C72.11 154.37, 58.78 117.06, 49.81 94.8 C40.84 72.55, 38.28 56.67, 29.8 41.29 C21.31 25.9, 4.37 8.83, -1.09 2.49" stroke="#495057" stroke-width="4" fill="none"></path></g></g><g stroke-linecap="round"><g transform="translate(1487.4946979757742 531.6724018196164) rotate(318.8687826209182 89.45364632633164 -16.567413699382314)"><path d="M-2.86 -0.91 C1.67 6.75, 6.96 39.66, 24.71 44.11 C42.45 48.57, 76.24 38.33, 103.58 25.84 C130.93 13.35, 181.28 -13.52, 188.75 -30.83 C196.22 -48.14, 180.1 -82.53, 148.42 -78.02 C116.75 -73.5, 18.75 -23.91, -1.29 -3.75 C-21.33 16.41, 23.93 35.31, 28.18 42.96 M0.82 -2.71 C6.49 4.09, 13.39 35.83, 30.29 39.81 C47.18 43.8, 75.89 33.76, 102.17 21.22 C128.46 8.67, 180.91 -19.12, 188 -35.43 C195.09 -51.74, 177.07 -82.71, 144.72 -76.64 C112.37 -70.58, 14.35 -18.46, -6.08 0.96 C-26.51 20.38, 16.23 33.2, 22.12 39.86" stroke="#495057" stroke-width="4" fill="none"></path></g></g><g stroke-linecap="round"><g transform="translate(2140.8257951848746 443.0250934881615) rotate(318.8687826209182 99.1667167312421 -16.316277183335217)"><path d="M-1.57 0.75 C2.71 8.54, 10.05 42.46, 28.46 46.62 C46.88 50.78, 79.28 39.01, 108.91 25.72 C138.54 12.43, 197.7 -15.07, 206.26 -33.1 C214.82 -51.13, 194.9 -88.59, 160.27 -82.46 C125.65 -76.33, 20.45 -18.23, -1.49 3.67 C-23.43 25.57, 23.47 41.4, 28.65 48.96 M2.77 -1.31 C6.46 6.85, 9.14 44.7, 26.44 49.51 C43.74 54.32, 76.3 40.84, 106.55 27.54 C136.79 14.24, 199.42 -12.07, 207.9 -30.29 C216.39 -48.52, 193.17 -87.29, 157.46 -81.81 C121.75 -76.34, 14.83 -18.78, -6.34 2.57 C-27.5 23.92, 24.76 38.6, 30.49 46.31" stroke="#495057" stroke-width="4" fill="none"></path></g></g><g stroke-linecap="round"><g transform="translate(2716.311792091592 436.55369549839156) rotate(295.63815709681734 114.74125863970357 -19.553521002311697)"><path d="M-1.5 2.33 C3.91 10.41, 19.56 45.26, 32.72 50.37 C45.88 55.48, 59.75 38.76, 77.47 32.99 C95.2 27.22, 120.17 22.99, 139.07 15.75 C157.97 8.51, 176.95 -1.62, 190.9 -10.43 C204.85 -19.25, 216.93 -24.86, 222.76 -37.12 C228.6 -49.39, 232.91 -75.43, 225.91 -84.03 C218.9 -92.64, 210.24 -98.4, 180.73 -88.75 C151.21 -79.09, 79.08 -41.47, 48.8 -26.11 C18.52 -10.75, 1.41 -9.76, -0.96 3.41 C-3.33 16.59, 29.23 45.06, 34.6 52.94 M2.88 1.13 C7.97 9.39, 18.91 47.65, 30.9 53.25 C42.9 58.85, 56.97 40.64, 74.85 34.75 C92.73 28.86, 119.39 25.3, 138.19 17.92 C156.98 10.53, 173.2 0, 187.6 -9.57 C202.01 -19.13, 218.15 -26.71, 224.62 -39.48 C231.09 -52.25, 234.15 -77.81, 226.41 -86.19 C218.67 -94.57, 208.16 -99.25, 178.16 -89.77 C148.15 -80.29, 75.84 -44.9, 46.36 -29.31 C16.88 -13.73, 4.31 -10.45, 1.28 3.75 C-1.76 17.95, 22.35 48.35, 28.16 55.91" stroke="#495057" stroke-width="4" fill="none"></path></g></g><g stroke-linecap="round"><g transform="translate(1486.7230324207485 746.2903897575695) rotate(359.0391178944761 -31.608181594497637 210.79591177012355)"><path d="M-2.52 -1 C3.95 4.66, 19.87 22.98, 36.17 34.56 C52.48 46.13, 89.34 45.67, 95.29 68.47 C101.23 91.27, 95.48 137.26, 71.85 171.35 C48.21 205.44, -19.61 249.01, -46.52 273 C-73.43 297, -94.35 292.67, -89.6 315.3 C-84.84 337.94, -22.5 390.43, -17.97 408.79 C-13.43 427.16, -49.74 424.69, -62.4 425.49 C-75.06 426.29, -83.98 422.79, -93.95 413.62 C-103.92 404.45, -111.15 387.9, -122.21 370.47 C-133.26 353.04, -164.83 328.9, -160.28 309.02 C-155.74 289.14, -111.26 271.13, -94.95 251.17 C-78.65 231.22, -72.94 207.57, -62.47 189.27 C-52.01 170.96, -44.64 154.88, -32.18 141.35 C-19.72 127.82, 7.19 131.26, 12.31 108.09 C17.42 84.92, 0.63 20.58, -1.49 2.33 M1.31 -4.01 C7.61 0.85, 18.11 18.22, 33.7 30.77 C49.28 43.32, 88.51 48.62, 94.81 71.27 C101.11 93.92, 94.42 132.74, 71.5 166.68 C48.58 200.61, -16.22 250.57, -42.71 274.9 C-69.2 299.23, -91.65 290.92, -87.44 312.65 C-83.24 334.39, -21.33 386.62, -17.45 405.32 C-13.58 424.02, -52.15 423.77, -64.21 424.84 C-76.26 425.91, -80.3 420.73, -89.79 411.73 C-99.27 402.72, -109.65 387.66, -121.11 370.81 C-132.57 353.95, -162.52 330.53, -158.53 310.58 C-154.55 290.64, -113.16 270.47, -97.19 251.15 C-81.22 231.83, -73.18 212.88, -62.72 194.63 C-52.25 176.39, -46.97 155.08, -34.39 141.7 C-21.8 128.32, 7.05 138.32, 12.8 114.36 C18.56 90.39, 2.88 17.04, 0.15 -2.09" stroke="#495057" stroke-width="4" fill="none"></path></g></g><g stroke-linecap="round"><g transform="translate(2157.273630339894 706.2104444421516) rotate(15.368942144277442 -28.254729938940727 211.58565534240574)"><path d="M0.75 0.39 C5.93 6.62, 16.81 18.74, 30.93 35.79 C45.04 52.83, 77.97 80.81, 85.46 102.68 C92.94 124.55, 99.14 136.9, 75.83 167 C52.52 197.11, -28.4 259.5, -54.41 283.3 C-80.42 307.11, -79.79 297.83, -80.24 309.82 C-80.69 321.8, -66.31 336.03, -57.1 355.24 C-47.89 374.46, -22.07 417.15, -24.97 425.1 C-27.87 433.05, -61.26 412.99, -74.49 402.95 C-87.72 392.91, -91.33 379.89, -104.33 364.85 C-117.33 349.82, -153.21 329.26, -152.49 312.74 C-151.76 296.22, -114.39 282.55, -99.97 265.73 C-85.55 248.91, -76.8 229.39, -65.97 211.81 C-55.14 194.24, -48.84 175.5, -35.01 160.26 C-21.17 145.02, 10.73 146.93, 17.03 120.39 C23.33 93.85, 5.26 21.38, 2.8 1.02 M-2.29 -1.86 C3.85 4.9, 21.04 22.18, 36.58 38.86 C52.13 55.54, 84.33 77.75, 91 98.22 C97.67 118.68, 101.48 130.55, 76.62 161.63 C51.76 192.71, -31.36 260.35, -58.16 284.69 C-84.96 309.03, -84.71 296.31, -84.19 307.68 C-83.68 319.05, -64.62 333.4, -55.06 352.91 C-45.5 372.42, -24.2 415.75, -26.83 424.74 C-29.45 433.73, -56.92 416.74, -70.8 406.83 C-84.67 396.92, -96.58 380.78, -110.09 365.29 C-123.59 349.81, -154.26 330.77, -151.81 313.91 C-149.35 297.04, -109.72 281.25, -95.37 264.09 C-81.01 246.94, -75.47 228.27, -65.67 210.97 C-55.88 193.66, -50.28 175.34, -36.57 160.26 C-22.86 145.19, 10.82 147.91, 16.6 120.51 C22.39 93.12, 0.8 16.14, -1.88 -4.11" stroke="#495057" stroke-width="4" fill="none"></path></g></g><g stroke-linecap="round"><g transform="translate(2896.7406786629044 705.019466603087) rotate(335.84002568937257 -108.49620180295824 237.95204195076326)"><path d="M2.33 0.78 C4.31 12.81, 10.59 47.82, 13.76 70.7 C16.92 93.59, 23.14 116.22, 21.31 138.09 C19.47 159.97, 28.85 168.32, 2.74 201.93 C-23.36 235.54, -107.19 311.26, -135.31 339.77 C-163.43 368.27, -165.82 360.15, -165.98 372.95 C-166.14 385.75, -147.77 399.75, -136.27 416.56 C-124.76 433.36, -94.07 465.52, -96.95 473.76 C-99.84 481.99, -136.36 473.22, -153.57 465.96 C-170.79 458.69, -186.23 439.64, -200.25 430.17 C-214.28 420.7, -231.22 417.85, -237.73 409.14 C-244.24 400.43, -248.26 391.74, -239.32 377.89 C-230.39 364.05, -200.63 347.42, -184.11 326.09 C-167.59 304.76, -153.94 272.64, -140.21 249.93 C-126.48 227.23, -118.31 206.19, -101.73 189.86 C-85.15 173.52, -52.99 172.17, -40.74 151.92 C-28.48 131.67, -34.56 93.82, -28.22 68.36 C-21.87 42.91, -7.59 10.53, -2.65 -0.81 M0.16 -1.27 C2.9 11.25, 14.97 50.02, 19.41 73.52 C23.85 97.02, 29.54 117.87, 26.79 139.74 C24.04 161.6, 30.49 171.47, 2.89 204.71 C-24.71 237.96, -111.26 310.31, -138.83 339.21 C-166.41 368.11, -161.96 365.78, -162.55 378.12 C-163.14 390.46, -152.86 397.17, -142.37 413.23 C-131.88 429.29, -97.07 466.14, -99.59 474.46 C-102.1 482.77, -139.77 470.43, -157.45 463.11 C-175.14 455.79, -192.53 439.22, -205.67 430.54 C-218.82 421.87, -231.51 418.82, -236.33 411.07 C-241.15 403.32, -243.31 398.33, -234.59 384.05 C-225.88 369.78, -199.7 346.67, -184.04 325.43 C-168.37 304.19, -154.25 278.21, -140.6 256.62 C-126.94 235.02, -119.15 214.08, -102.1 195.85 C-85.05 177.62, -50.13 168.43, -38.3 147.24 C-26.47 126.05, -37.77 93.3, -31.13 68.69 C-24.5 44.09, -3.5 10.88, 1.51 -0.39" stroke="#495057" stroke-width="4" fill="none"></path></g></g><g stroke-linecap="round"><g transform="translate(2920.7147602343684 1152.3071770046522) rotate(0 125.22079926811239 -570.4102534009452)"><path d="M-0.58 1.33 C36.2 -169.73, 180.09 -855.78, 218.16 -1023.61 C256.23 -1191.44, 264.01 -1176.51, 227.85 -1005.66 C191.7 -834.81, 39.36 -165.74, 1.22 1.49 M4.3 -0.42 C41.01 -169.89, 179.28 -852.09, 216.35 -1020.48 C253.42 -1188.87, 262.36 -1180.21, 226.71 -1010.75 C191.07 -841.29, 39.64 -171.76, 2.47 -3.74" stroke="#495057" stroke-width="4" fill="none"></path></g></g><g stroke-linecap="round"><g transform="translate(12.338432364910659 1318.459947991891) rotate(0 1638.143259322715 -4.600934491483599)"><path d="M-2.34 0.73 C544.13 -1.25, 2732.03 -8.74, 3278.62 -9.93 M1.59 -1.34 C547.6 -3.18, 2728.91 -5.71, 3275.75 -7.34" stroke="#495057" stroke-width="4" fill="none"></path></g><g transform="translate(12.338432364910659 1318.459947991891) rotate(0 1638.143259322715 -4.600934491483599)"><path d="M3248.63 1.3 C3252.95 -3.27, 3266.18 -2.15, 3279.18 -8.27 M3249.13 4.34 C3256.45 -1.03, 3264.6 -5.09, 3277.4 -5.4" stroke="#495057" stroke-width="4" fill="none"></path></g><g transform="translate(12.338432364910659 1318.459947991891) rotate(0 1638.143259322715 -4.600934491483599)"><path d="M3248.58 -19.22 C3253.21 -17.78, 3266.44 -10.66, 3279.18 -8.27 M3249.09 -16.18 C3256.34 -15.09, 3264.51 -12.67, 3277.4 -5.4" stroke="#495057" stroke-width="4" fill="none"></path></g></g><g stroke-linecap="round" transform="translate(358.60204780221557 1292.2497978140148) rotate(0 23.185073372033685 23.77956475880012)"><path d="M43 11.36 C45.8 15.55, 45.34 21.88, 44.44 26.89 C43.54 31.9, 40.82 37.95, 37.59 41.42 C34.37 44.9, 29.73 47.79, 25.1 47.73 C20.47 47.67, 14.04 43.95, 9.83 41.07 C5.62 38.19, 1.28 35.38, -0.18 30.45 C-1.63 25.53, -1.58 16.36, 1.09 11.52 C3.75 6.68, 10.84 3.15, 15.81 1.43 C20.78 -0.3, 26.59 -0.73, 30.89 1.18 C35.19 3.1, 39.46 10.36, 41.64 12.91 C43.82 15.47, 44.07 16.67, 43.95 16.5 M13.46 0.45 C17.71 -1.49, 26.14 1.56, 30.74 2.68 C35.34 3.79, 38.6 3.68, 41.04 7.12 C43.48 10.56, 45.31 18.26, 45.38 23.31 C45.45 28.35, 44.45 33.65, 41.45 37.39 C38.46 41.14, 32.77 44.25, 27.42 45.76 C22.08 47.28, 13.78 49.26, 9.38 46.48 C4.99 43.7, 2.75 34.17, 1.06 29.09 C-0.63 24.01, -3 20.89, -0.76 16 C1.48 11.11, 12.6 2.09, 14.52 -0.22 C16.43 -2.53, 10.83 0.94, 10.75 2.14" stroke="#495057" stroke-width="4" fill="none"></path></g><g stroke-linecap="round" transform="translate(945.451202620105 1289.1087266483798) rotate(0 23.185073372033685 23.77956475880012)"><path d="M12.31 1.58 C16.43 -1.24, 21.75 -1.8, 26.75 -0.7 C31.75 0.4, 39.31 4.3, 42.3 8.19 C45.28 12.07, 44.83 17.41, 44.66 22.62 C44.49 27.83, 44.29 35.34, 41.27 39.43 C38.24 43.52, 31.28 46.53, 26.48 47.16 C21.68 47.8, 16.51 46.18, 12.48 43.24 C8.45 40.31, 3.95 34.5, 2.29 29.57 C0.64 24.64, -0.76 18.42, 2.55 13.67 C5.86 8.91, 17.43 3.27, 22.16 1.02 C26.89 -1.23, 30.78 -0.13, 30.91 0.19 M17.48 -2.09 C21.95 -3.9, 28.05 -1.3, 33.09 1.5 C38.13 4.3, 46.11 9.74, 47.7 14.73 C49.29 19.71, 44.39 26.69, 42.62 31.39 C40.84 36.08, 41.01 40.12, 37.05 42.89 C33.1 45.67, 24.2 48.88, 18.87 48.02 C13.53 47.16, 8.34 41.43, 5.03 37.75 C1.73 34.07, -1.58 31.29, -0.97 25.95 C-0.35 20.62, 5.56 10.02, 8.72 5.73 C11.89 1.45, 16.55 0.74, 18.04 0.22 C19.53 -0.3, 17.14 1.79, 17.64 2.61" stroke="#495057" stroke-width="4" fill="none"></path></g><g stroke-linecap="round" transform="translate(1574.6598926888837 1290.034345835814) rotate(0 23.185073372033912 23.77956475880012)"><path d="M40.36 8.36 C43.93 12.17, 48.29 19.1, 47.99 24.28 C47.68 29.46, 41.92 35.78, 38.52 39.43 C35.13 43.09, 32.28 45.41, 27.62 46.2 C22.96 46.99, 15 46.9, 10.56 44.19 C6.11 41.47, 2.5 34.59, 0.95 29.92 C-0.59 25.24, -1 20.94, 1.32 16.12 C3.63 11.29, 10.47 3.54, 14.83 0.97 C19.2 -1.61, 22.71 -2.06, 27.5 0.67 C32.29 3.39, 40.43 13.3, 43.6 17.32 C46.77 21.34, 46.31 24.68, 46.5 24.78 M40.21 7.11 C43.65 10.06, 47.77 17.09, 47.97 22.06 C48.18 27.03, 45.48 32.53, 41.42 36.91 C37.36 41.28, 28.98 47.51, 23.62 48.31 C18.25 49.12, 12.56 44.47, 9.26 41.73 C5.95 38.99, 5.29 36.04, 3.78 31.88 C2.26 27.71, -1.38 21.79, 0.14 16.76 C1.67 11.74, 7.85 4.75, 12.93 1.73 C18.01 -1.28, 25.75 -2.4, 30.61 -1.32 C35.48 -0.23, 40.35 6.87, 42.14 8.25 C43.92 9.63, 42.11 6.53, 41.3 6.95" stroke="#495057" stroke-width="4" fill="none"></path></g><g stroke-linecap="round" transform="translate(2232.6850354516573 1289.1086359365406) rotate(0 23.185073372033912 23.77956475880012)"><path d="M4.82 6.59 C8.06 2.4, 15.19 -1.23, 20.17 -1.65 C25.15 -2.06, 30.65 1.36, 34.7 4.12 C38.76 6.89, 43.11 9.95, 44.5 14.95 C45.88 19.94, 44.53 28.97, 43.01 34.11 C41.49 39.26, 39.47 43.4, 35.38 45.79 C31.29 48.18, 23.24 49.52, 18.46 48.46 C13.67 47.41, 9.63 43.97, 6.68 39.46 C3.74 34.96, -0.4 28.04, 0.78 21.46 C1.96 14.87, 9.34 3.12, 13.75 -0.04 C18.17 -3.2, 26.66 1.9, 27.26 2.49 M19.9 -1.86 C24.44 -2.53, 33.66 2.08, 37.54 4.94 C41.41 7.8, 42.09 10.96, 43.15 15.28 C44.22 19.61, 45.2 25.65, 43.91 30.89 C42.61 36.13, 40 43.75, 35.4 46.7 C30.8 49.66, 21.07 49.68, 16.33 48.61 C11.58 47.53, 9.59 45.08, 6.92 40.25 C4.26 35.43, 0.73 25.12, 0.33 19.66 C-0.08 14.2, 1.21 10.47, 4.48 7.5 C7.74 4.53, 16.91 2.76, 19.92 1.84 C22.92 0.92, 22.22 1.87, 22.52 1.95" stroke="#495057" stroke-width="4" fill="none"></path></g><g stroke-linecap="round" transform="translate(2917.3972195244305 1289.1086359365406) rotate(0 23.185073372033912 23.77956475880012)"><path d="M29.97 1.04 C34.98 2.85, 41.96 8.73, 44.57 13.21 C47.17 17.69, 46.92 23.4, 45.59 27.92 C44.26 32.43, 40.35 36.79, 36.6 40.3 C32.85 43.81, 27.74 48.48, 23.09 48.99 C18.44 49.5, 12.25 46.72, 8.68 43.36 C5.11 40, 2.84 33.75, 1.68 28.83 C0.52 23.92, -0.64 18.17, 1.73 13.85 C4.11 9.53, 10.43 4.54, 15.93 2.9 C21.42 1.26, 30.25 2.96, 34.69 4.01 C39.13 5.06, 42.34 9.08, 42.55 9.2 M21.46 -0.03 C25.73 -1.68, 29.8 -0.39, 33.87 1.99 C37.94 4.36, 44.12 9.22, 45.86 14.19 C47.6 19.17, 46.42 26.34, 44.31 31.82 C42.2 37.31, 36.94 44.14, 33.21 47.09 C29.47 50.04, 26.6 51.12, 21.9 49.55 C17.21 47.98, 8.46 42.21, 5.04 37.66 C1.61 33.11, 1.72 26.93, 1.35 22.25 C0.98 17.56, -0.57 13.14, 2.81 9.54 C6.2 5.94, 19.44 2.11, 21.66 0.65 C23.87 -0.8, 16.74 0.77, 16.11 0.79" stroke="#495057" stroke-width="4" fill="none"></path></g><g stroke-linecap="round"><g transform="translate(388.047227999391 1360.1540381434388) rotate(0 20.50196537025431 115.34003769159335)"><path d="M-1 -1.7 C9.55 11.07, 63.54 51.54, 60.98 77.46 C58.43 103.37, -2.98 127.98, -16.34 153.8 C-29.7 179.62, -19.1 219.65, -19.17 232.38 M3.65 3.56 C15.24 15.45, 69.69 49.04, 65.95 73.37 C62.21 97.69, -4.71 123.82, -18.79 149.5 C-32.87 175.19, -18.53 213.88, -18.53 227.47" stroke="#495057" stroke-width="4" fill="none"></path></g><g transform="translate(388.047227999391 1360.1540381434388) rotate(0 20.50196537025431 115.34003769159335)"><path d="M-35.31 197.34 C-27.18 205.27, -23.22 212.85, -15.57 231.11 M-32.67 202.57 C-27.66 210.21, -24.51 217.8, -18.05 225.91" stroke="#495057" stroke-width="4" fill="none"></path></g><g transform="translate(388.047227999391 1360.1540381434388) rotate(0 20.50196537025431 115.34003769159335)"><path d="M-15.02 194.27 C-11.29 202.73, -11.75 210.97, -15.57 231.11 M-12.38 199.51 C-13.4 207.99, -16.24 216.49, -18.05 225.91" stroke="#495057" stroke-width="4" fill="none"></path></g></g><g stroke-linecap="round"><g transform="translate(940.9865387090258 1336.7843227707162) rotate(0 -46.94362452151813 54.05375548365248)"><path d="M-0.06 0.5 C-15.5 3.33, -90.87 1.46, -91.35 19.67 C-91.83 37.89, -18.09 94.94, -2.93 109.8 M-3.54 -1.69 C-19.51 2.67, -93.51 4.56, -93.82 22.47 C-94.14 40.38, -21.2 92.22, -5.41 105.77" stroke="#495057" stroke-width="4" fill="none"></path></g><g transform="translate(940.9865387090258 1336.7843227707162) rotate(0 -46.94362452151813 54.05375548365248)"><path d="M-33.18 95.75 C-26.06 97.88, -10.05 104.78, -2.8 108.89 M-32.79 97.9 C-23.3 99.23, -12.72 103.05, -3.45 105.24" stroke="#495057" stroke-width="4" fill="none"></path></g><g transform="translate(940.9865387090258 1336.7843227707162) rotate(0 -46.94362452151813 54.05375548365248)"><path d="M-20.48 79.64 C-17.44 87.33, -5.82 99.81, -2.8 108.89 M-20.08 81.78 C-15.45 89.48, -9.88 99.66, -3.45 105.24" stroke="#495057" stroke-width="4" fill="none"></path></g></g><g stroke-linecap="round"><g transform="translate(1584.410738131227 1351.8145860356908) rotate(0 -26.635410940201837 181.87468347946822)"><path d="M-0.48 -2.41 C-10.18 7.14, -65.68 20.23, -59.71 55.6 C-53.73 90.97, 38.48 167.28, 35.39 209.81 C32.3 252.34, -58.41 284.73, -78.25 310.79 C-98.09 336.85, -83.42 357.69, -83.67 366.16 M-4.19 2.45 C-12.88 11.3, -60.94 16.01, -54.46 51.16 C-47.98 86.3, 38.51 170.89, 34.7 213.31 C30.88 255.73, -58.34 281.26, -77.37 305.67 C-96.41 330.09, -78.42 349.64, -79.51 359.81" stroke="#495057" stroke-width="4" fill="none"></path></g><g transform="translate(1584.410738131227 1351.8145860356908) rotate(0 -26.635410940201837 181.87468347946822)"><path d="M-97.8 333.84 C-89.48 345.52, -86.29 349.01, -77.09 357.17 M-92.75 335.95 C-86.64 346.27, -82.84 353.22, -79.98 358.42" stroke="#495057" stroke-width="4" fill="none"></path></g><g transform="translate(1584.410738131227 1351.8145860356908) rotate(0 -26.635410940201837 181.87468347946822)"><path d="M-79.59 329.66 C-75.81 342.31, -77.11 346.83, -77.09 357.17 M-74.54 331.78 C-75.47 343.46, -78.77 352.04, -79.98 358.42" stroke="#495057" stroke-width="4" fill="none"></path></g></g><g stroke-linecap="round"><g transform="translate(2256.8956573613696 1357.6328385991674) rotate(0 -65.67052063256187 90.33396993035296)"><path d="M2.43 -1.53 C2.08 6.11, 21.88 31.29, -1.75 43.98 C-25.38 56.67, -134.78 51.94, -139.37 74.6 C-143.97 97.27, -51.44 171.45, -29.3 179.96 C-7.16 188.47, -10.15 134.77, -6.54 125.68 M0.3 3.82 C-0.34 10.8, 20.29 27.6, -3.29 39.82 C-26.87 52.03, -136.75 53.46, -141.17 77.09 C-145.59 100.71, -53.04 173.45, -29.82 181.56 C-6.6 189.67, -5.93 134.23, -1.86 125.74" stroke="#495057" stroke-width="4" fill="none"></path></g><g transform="translate(2256.8956573613696 1357.6328385991674) rotate(0 -65.67052063256187 90.33396993035296)"><path d="M0.42 156.57 C3.81 145.76, -1.46 133.76, -4.51 124.46 M2.3 153.53 C1.38 147.13, 2.79 139.39, -1.29 124.16" stroke="#495057" stroke-width="4" fill="none"></path></g><g transform="translate(2256.8956573613696 1357.6328385991674) rotate(0 -65.67052063256187 90.33396993035296)"><path d="M-19.26 152.65 C-9.76 142.73, -8.87 131.96, -4.51 124.46 M-17.38 149.62 C-13.57 144.42, -7.38 137.63, -1.29 124.16" stroke="#495057" stroke-width="4" fill="none"></path></g></g><g stroke-linecap="round"><g transform="translate(2871.153378901052 1376.5885684502803) rotate(30.215995877001028 111.98445754048817 162.61269264070802)"><path d="M2.72 -1.07 C33.41 8.32, 150.82 23.52, 185.65 54.88 C220.48 86.25, 234.48 148.08, 211.7 187.11 C188.91 226.15, 76.44 265.44, 48.95 289.08 C21.45 312.72, 46.59 322.11, 46.72 328.95 M0.75 -4.12 C32.16 5.64, 156.02 24.87, 190.84 57.05 C225.66 89.23, 233.17 150.04, 209.66 188.99 C186.15 227.93, 76.31 267.3, 49.78 290.69 C23.25 314.08, 49.9 323.16, 50.48 329.34" stroke="#495057" stroke-width="4" fill="none"></path></g><g transform="translate(2871.153378901052 1376.5885684502803) rotate(30.215995877001028 111.98445754048817 162.61269264070802)"><path d="M32.23 316.23 C35.8 321.97, 42.32 326.75, 47.93 325.72 M34.9 318.23 C38.86 322.71, 44.39 325.46, 51.41 331.16" stroke="#495057" stroke-width="4" fill="none"></path></g><g transform="translate(2871.153378901052 1376.5885684502803) rotate(30.215995877001028 111.98445754048817 162.61269264070802)"><path d="M42.58 307.8 C42.4 316.73, 45.24 324.5, 47.93 325.72 M45.25 309.79 C46.49 316.53, 49.28 321.52, 51.41 331.16" stroke="#495057" stroke-width="4" fill="none"></path></g></g><g transform="translate(296.25622209983794 1248.7059082148446) rotate(355.4169893250372 87.80768269799864 17.919935244489466)"><text x="87.80768269799864" y="25.839870488979003" font-family="Virgil, Segoe UI Emoji" font-size="28.671896391183225px" fill="#495057" text-anchor="middle" style="floralwhite-space: pre;" direction="ltr">2012 - 2015</text></g><g transform="translate(895.7267273449056 1245.3724825451175) rotate(2.7519791520658257 85 18)"><text x="85" y="26" font-family="Virgil, Segoe UI Emoji" font-size="28.671896391183225px" fill="#495057" text-anchor="middle" style="floralwhite-space: pre;" direction="ltr">2015 - 2017</text></g><g transform="translate(1514.6156840506337 1253.5946979856546) rotate(358.06720791722773 85 18)"><text x="85" y="26" font-family="Virgil, Segoe UI Emoji" font-size="28.671896391183225px" fill="#495057" text-anchor="middle" style="floralwhite-space: pre;" direction="ltr">2017 - 2019</text></g><g transform="translate(2174.9123073644723 1251.503358812466) rotate(359.8409510382871 83.99991989135742 15.999984741210938)"><text x="83.99991989135737" y="22.99996948242186" font-family="Virgil, Segoe UI Emoji" font-size="25.59997558593749px" fill="#495057" text-anchor="middle" style="floralwhite-space: pre;" direction="ltr">2019 - 2020</text></g><g transform="translate(2851.9122476432376 1257.5033689849345) rotate(359.8409510382871 89 16)"><text x="89" y="23" font-family="Virgil, Segoe UI Emoji" font-size="25.59997558593749px" fill="#495057" text-anchor="middle" style="floralwhite-space: pre;" direction="ltr">2020 - 2025</text></g><g transform="translate(183.74589246781716 1606.0033282948862) rotate(0 196.5714340209961 45.837285063191985)"><text x="196.5714340209961" y="31.837285063191914" font-family="Virgil, Segoe UI Emoji" font-size="36.66984239765964px" fill="#495057" text-anchor="middle" style="floralwhite-space: pre;" direction="ltr">High school science </text><text x="196.5714340209961" y="77.67457012638383" font-family="Virgil, Segoe UI Emoji" font-size="36.66984239765964px" fill="#495057" text-anchor="middle" style="floralwhite-space: pre;" direction="ltr">concentration program</text></g><g transform="translate(620.5790757564018 1458.003348639937) rotate(0 387.8000704447509 28.000005086263627)"><text x="387.8000704447509" y="39.00001017252722" font-family="Virgil, Segoe UI Emoji" font-size="44.800008138021774px" fill="#495057" text-anchor="middle" style="floralwhite-space: pre;" direction="ltr">National Circus School of Montreal</text></g><g transform="translate(1309.4838024206283 1714.3366107655856) rotate(0 229.21411514282727 27.7835291082215)"><text x="229.21411514282744" y="38.567058216442994" font-family="Virgil, Segoe UI Emoji" font-size="44.45364657315441px" fill="#495057" text-anchor="middle" style="floralwhite-space: pre;" direction="ltr">Quebec Circus School</text></g><g transform="translate(2165.8456162837474 1414.9937915517203) rotate(0 252.83576087951633 29.571434020996094)"><text x="252.83576087951633" y="42.142868041992095" font-family="Virgil, Segoe UI Emoji" font-size="47.31429443359366px" fill="#495057" text-anchor="middle" style="floralwhite-space: pre;" direction="ltr">Mechanical Engineering</text></g><g transform="translate(2692.1598863032787 1662.1365985585562) rotate(0 320.6024597167984 39.826392511403355)"><text x="320.60245971679825" y="54.652785022806924" font-family="Virgil, Segoe UI Emoji" font-size="63.722228018245566px" fill="#495057" text-anchor="middle" style="floralwhite-space: pre;" direction="ltr">Software Engineering</text></g><g stroke-linecap="round"><g transform="translate(2538.0963634976733 1553.9654820405185) rotate(0 35.40208005215709 -21.157109845669424)"><path d="M1.95 -29.37 C3.28 -29.19, 7.01 -28.45, 9.65 -29.65 C12.29 -30.85, 17.28 -34.4, 17.78 -36.55 C18.27 -38.7, 11.58 -39.68, 12.61 -42.56 C13.64 -45.44, 21.53 -53.71, 23.96 -53.83 C26.4 -53.96, 25.03 -44.65, 27.21 -43.3 C29.4 -41.96, 34.48 -43.93, 37.07 -45.77 C39.66 -47.61, 39.17 -53.9, 42.75 -54.36 C46.33 -54.82, 57.04 -50.51, 58.55 -48.56 C60.06 -46.6, 51.74 -45.5, 51.79 -42.64 C51.84 -39.78, 55.86 -32.36, 58.86 -31.4 C61.85 -30.44, 67.97 -38.9, 69.78 -36.87 C71.59 -34.85, 72.06 -21.99, 69.72 -19.22 C67.38 -16.46, 58.76 -21.7, 55.75 -20.28 C52.75 -18.87, 50.64 -13.35, 51.68 -10.74 C52.73 -8.12, 62.44 -7.65, 62.03 -4.59 C61.62 -1.54, 52.25 7.18, 49.24 7.58 C46.23 7.98, 47 -0.89, 43.95 -2.21 C40.9 -3.53, 33.35 -2.16, 30.94 -0.33 C28.53 1.5, 32.62 8.5, 29.48 8.75 C26.34 8.99, 14.16 3.34, 12.1 1.15 C10.04 -1.03, 17.39 -1.38, 17.14 -4.37 C16.88 -7.36, 13.31 -15.32, 10.56 -16.81 C7.81 -18.3, 2.48 -10.99, 0.65 -13.31 C-1.17 -15.63, -0.25 -27.74, -0.38 -30.74 M-0.44 -31.72 C1.63 -31, 12.01 -24.68, 14.98 -26.27 C17.95 -27.86, 18.87 -37.67, 17.39 -41.27 C15.9 -44.86, 5.36 -45.82, 6.05 -47.83 C6.74 -49.85, 17.42 -53.9, 21.52 -53.35 C25.63 -52.81, 28.05 -45.3, 30.67 -44.55 C33.29 -43.8, 35.49 -47.2, 37.23 -48.86 C38.96 -50.52, 37.97 -54.15, 41.09 -54.5 C44.2 -54.86, 53.92 -52.71, 55.92 -51 C57.92 -49.3, 52.42 -46.64, 53.07 -44.27 C53.72 -41.9, 57.47 -39.05, 59.81 -36.77 C62.15 -34.5, 65.24 -33.29, 67.12 -30.63 C69.01 -27.96, 72.02 -22.43, 71.12 -20.78 C70.21 -19.13, 64.95 -22.14, 61.67 -20.71 C58.4 -19.28, 50.94 -15.4, 51.44 -12.19 C51.94 -8.98, 64.34 -5.16, 64.69 -1.44 C65.04 2.29, 57.4 10.25, 53.53 10.17 C49.66 10.1, 45.78 -0.13, 41.47 -1.88 C37.17 -3.62, 30.7 -2.63, 27.68 -0.31 C24.66 2.02, 26.44 11.09, 23.35 12.08 C20.27 13.06, 10.05 8.83, 9.16 5.61 C8.27 2.4, 17.94 -4.46, 18.03 -7.24 C18.12 -10.02, 11.97 -9.77, 9.72 -11.08 C7.48 -12.4, 5.61 -11.86, 4.54 -15.12 C3.48 -18.39, 3.65 -27.78, 3.31 -30.68" stroke="#495057" stroke-width="4" fill="none"></path></g></g><g stroke-linecap="round" transform="translate(2562.4295201732775 1521.9344859669673) rotate(0 10.732713410901852 10.043459205318072)"><path d="M12.95 2.14 C14.88 2.76, 18.19 4.1, 19.86 5.87 C21.53 7.64, 23.23 10.84, 22.97 12.75 C22.72 14.66, 20.5 16.15, 18.34 17.32 C16.18 18.5, 12.52 19.8, 10.01 19.8 C7.5 19.81, 4.75 18.89, 3.26 17.37 C1.78 15.86, 1.52 12.69, 1.11 10.73 C0.69 8.76, -0.2 7.14, 0.75 5.58 C1.7 4.02, 4.02 1.97, 6.8 1.38 C9.58 0.79, 15.13 1.06, 17.41 2.06 C19.68 3.07, 20.42 7.5, 20.45 7.42 M8.93 2.02 C10.87 2.41, 13.32 2.58, 15.31 3.78 C17.3 4.97, 19.81 7.63, 20.88 9.2 C21.96 10.77, 22.7 11.64, 21.77 13.2 C20.84 14.76, 17.44 17.01, 15.31 18.56 C13.18 20.12, 10.82 23.15, 8.97 22.52 C7.13 21.89, 6.07 16.75, 4.23 14.78 C2.4 12.82, -1.68 12.27, -2.02 10.75 C-2.36 9.22, 0.11 7.41, 2.19 5.63 C4.27 3.85, 8.74 0.96, 10.46 0.06 C12.18 -0.84, 12.45 -0.3, 12.52 0.23" stroke="#495057" stroke-width="4" fill="none"></path></g><g stroke-linecap="round" transform="translate(240.54544909484775 1517.2207691239291) rotate(0 39.68254513210741 33.01587422688772)"><path d="M4.98 14.81 C9.08 9.56, 19.46 4.34, 26.78 2.03 C34.1 -0.27, 41.66 -0.7, 48.93 0.97 C56.19 2.63, 65.65 6.81, 70.38 12.04 C75.12 17.27, 77.04 25.8, 77.35 32.35 C77.65 38.89, 76.3 46.13, 72.22 51.31 C68.14 56.5, 59.97 61.13, 52.89 63.44 C45.81 65.76, 37.07 66.63, 29.74 65.2 C22.41 63.78, 14.08 59.97, 8.9 54.9 C3.71 49.83, -5.71 43.76, -1.37 34.79 C2.97 25.82, 24.19 5.49, 34.94 1.06 C45.68 -3.36, 63.31 7.64, 63.08 8.22 M59 4.45 C65.61 6.97, 74.44 13.15, 77.32 19.78 C80.2 26.4, 78.81 37.93, 76.26 44.2 C73.71 50.46, 67.67 54.11, 62.02 57.36 C56.37 60.62, 50.08 62.95, 42.36 63.73 C34.63 64.51, 22.62 65.43, 15.65 62.03 C8.68 58.62, 3.24 49.78, 0.55 43.31 C-2.15 36.85, -3.33 29.34, -0.51 23.23 C2.32 17.12, 11.59 10.58, 17.51 6.67 C23.43 2.77, 27.8 0.15, 34.99 -0.19 C42.19 -0.54, 56.15 3.66, 60.66 4.6 C65.17 5.53, 62.77 4.53, 62.06 5.42" stroke="#495057" stroke-width="4" fill="none"></path></g><g stroke-linecap="round"><g transform="translate(246.2597384421797 1531.8239388830425) rotate(0 31.39088128244839 18.855929511130967)"><path d="M1.31 -0.54 C-3.23 -1.68, -27.43 -13.9, -26.22 -9.57 C-25 -5.24, -6.43 15.84, 8.62 25.43 C23.67 35.03, 51.37 43.72, 64.09 48.02 C76.8 52.32, 83.72 54.4, 84.92 51.23 C86.13 48.07, 73.01 32.96, 71.32 29.04 M-1.43 -3.31 C-5.18 -5.05, -22.18 -19.28, -20.95 -13.91 C-19.71 -8.54, -8.41 18.06, 5.97 28.91 C20.35 39.76, 51.5 48.55, 65.34 51.19 C79.17 53.84, 87.51 47.58, 88.97 44.79 C90.43 42, 77.41 36.63, 74.08 34.45" stroke="#495057" stroke-width="4" fill="none"></path></g></g><g stroke-linecap="round"><g transform="translate(1665.7985546709851 1699.826665030243) rotate(0 14.580857561375979 -37.82903805541105)"><path d="M-2.07 -0.45 C-2.56 -0.68, -1.86 1.17, -1.11 1.32 C-0.37 1.47, 1.85 1.78, 2.41 0.45 C2.97 -0.88, 1.97 -1.47, 2.24 -6.68 C2.5 -11.88, 4.04 -26.54, 4 -30.78 C3.95 -35.02, 1.75 -32.48, 1.96 -32.1 C2.17 -31.72, 5.41 -29.12, 5.28 -28.52 C5.14 -27.91, 0.79 -29.8, 1.14 -28.49 C1.49 -27.17, 5.86 -22.24, 7.38 -20.62 C8.9 -19, 8.82 -18.88, 10.26 -18.76 C11.71 -18.63, 14.41 -18.46, 16.03 -19.87 C17.65 -21.27, 19.77 -25.32, 19.99 -27.19 C20.2 -29.05, 17.08 -29.95, 17.32 -31.07 C17.56 -32.19, 21.24 -35.11, 21.43 -33.9 C21.62 -32.69, 18.27 -29.1, 18.48 -23.79 C18.69 -18.47, 23.16 -6.42, 22.71 -2.02 C22.25 2.38, 15.32 1.91, 15.74 2.64 C16.17 3.36, 23.81 2.89, 25.27 2.33 C26.72 1.77, 24.84 5.93, 24.47 -0.71 C24.1 -7.35, 23.98 -29.2, 23.05 -37.51 C22.11 -45.83, 19.48 -46.14, 18.87 -50.6 C18.27 -55.05, 18.1 -61.12, 19.4 -64.24 C20.7 -67.37, 19.91 -68.59, 26.66 -69.35 C33.4 -70.12, 51.25 -69.31, 59.86 -68.82 C68.48 -68.33, 72.92 -66.7, 78.33 -66.4 C83.74 -66.1, 90.57 -66.38, 92.34 -67.01 C94.1 -67.65, 90.75 -70.27, 88.94 -70.21 C87.13 -70.16, 83.01 -66.2, 81.47 -66.68 C79.94 -67.17, 80.84 -72.97, 79.73 -73.12 C78.62 -73.27, 78.34 -67.94, 74.84 -67.59 C71.34 -67.24, 62.43 -70.4, 58.75 -71.04 C55.06 -71.68, 57.46 -70.01, 52.72 -71.43 C47.98 -72.85, 35.84 -78.05, 30.29 -79.58 C24.74 -81.1, 22.51 -81.12, 19.42 -80.57 C16.33 -80.02, 14.37 -76.28, 11.74 -76.28 C9.11 -76.29, 7.65 -80.81, 3.66 -80.61 C-0.32 -80.41, -7.69 -76.45, -12.17 -75.08 C-16.64 -73.7, -19.58 -72.48, -23.16 -72.36 C-26.75 -72.25, -29.25 -75.16, -33.67 -74.37 C-38.1 -73.58, -46.3 -68.67, -49.7 -67.63 C-53.1 -66.6, -52.22 -68.19, -54.07 -68.15 C-55.93 -68.11, -59.15 -67.73, -60.85 -67.39 C-62.55 -67.06, -65.32 -66.13, -64.26 -66.14 C-63.21 -66.15, -59.98 -67.23, -54.5 -67.46 C-49.01 -67.69, -39.94 -67.15, -31.35 -67.52 C-22.76 -67.89, -8.65 -70.64, -2.96 -69.67 C2.73 -68.7, 2.06 -65.15, 2.8 -61.68 C3.55 -58.22, 2.03 -53.14, 1.51 -48.88 C0.99 -44.61, 0.09 -41.12, -0.32 -36.09 C-0.73 -31.07, -0.76 -24.6, -0.95 -18.71 C-1.14 -12.83, -1.46 -3.96, -1.47 -0.79 M2.01 -3.16 C0.98 -1.71, -4.31 3.98, -3.35 4.99 C-2.38 6.01, 6.92 4.65, 7.79 2.93 C8.66 1.22, 3.12 0.38, 1.88 -5.27 C0.64 -10.92, -0.29 -26.29, 0.34 -30.99 C0.96 -35.69, 4.56 -33.41, 5.62 -33.45 C6.68 -33.49, 6.56 -31.75, 6.7 -31.24 C6.84 -30.73, 6.79 -31.77, 6.47 -30.37 C6.15 -28.97, 3.99 -24.64, 4.77 -22.85 C5.56 -21.07, 9.19 -19.33, 11.16 -19.66 C13.13 -20, 15.67 -23.68, 16.6 -24.87 C17.54 -26.07, 16.66 -25.42, 16.76 -26.83 C16.87 -28.24, 16.51 -32.02, 17.23 -33.31 C17.95 -34.6, 20.69 -36.19, 21.07 -34.57 C21.45 -32.96, 20.11 -29.48, 19.52 -23.63 C18.93 -17.79, 17.38 -4.26, 17.52 0.49 C17.66 5.24, 19.6 4.51, 20.37 4.88 C21.13 5.24, 21.92 3.44, 22.1 2.68 C22.27 1.93, 20.93 6.46, 21.41 0.35 C21.89 -5.75, 24.54 -24.96, 24.96 -33.94 C25.39 -42.93, 24.81 -49.22, 23.96 -53.56 C23.11 -57.9, 19.66 -57.16, 19.87 -59.99 C20.08 -62.82, 19.13 -68.67, 25.23 -70.56 C31.32 -72.45, 47.2 -72.19, 56.46 -71.32 C65.71 -70.46, 74.32 -66.07, 80.76 -65.36 C87.2 -64.65, 94.54 -65.94, 95.12 -67.07 C95.7 -68.2, 86.19 -71.66, 84.26 -72.15 C82.32 -72.65, 84.32 -70.24, 83.52 -70.03 C82.72 -69.82, 80.32 -70.86, 79.46 -70.91 C78.61 -70.95, 80.75 -69.71, 78.38 -70.32 C76.01 -70.92, 69.42 -73.9, 65.26 -74.56 C61.1 -75.22, 59.92 -73.22, 53.42 -74.26 C46.91 -75.31, 32.61 -80.05, 26.25 -80.84 C19.89 -81.63, 18.25 -79.42, 15.25 -79.01 C12.25 -78.6, 9.87 -78.42, 8.26 -78.37 C6.65 -78.33, 8.44 -78.97, 5.57 -78.75 C2.71 -78.53, -3.24 -78.02, -8.93 -77.06 C-14.63 -76.1, -24.45 -73.8, -28.61 -73 C-32.77 -72.2, -29.9 -73.29, -33.89 -72.24 C-37.88 -71.2, -49.44 -66.48, -52.55 -66.75 C-55.65 -67.01, -51.44 -73.86, -52.51 -73.85 C-53.59 -73.83, -56.77 -68.09, -59.01 -66.66 C-61.24 -65.23, -66.62 -65.42, -65.92 -65.26 C-65.22 -65.1, -60.2 -65.34, -54.79 -65.68 C-49.39 -66.03, -41.51 -66.64, -33.49 -67.31 C-25.46 -67.97, -12.51 -70.41, -6.62 -69.69 C-0.73 -68.97, 0.18 -65.94, 1.85 -63 C3.52 -60.05, 4.04 -56.18, 3.42 -52.04 C2.8 -47.91, -1.29 -43.93, -1.86 -38.18 C-2.44 -32.43, -0.37 -24.49, -0.04 -17.56 C0.3 -10.63, 0.28 0.61, 0.14 3.38" stroke="#495057" stroke-width="4" fill="none"></path></g></g></svg>