<svg version="1.1" xmlns="http://www.w3.org/2000/svg" viewBox="0 0 10049.64324149694 3930.333345712095" width="10049.64324149694" height="3930.333345712095" filter="invert(93%) hue-rotate(180deg)">
  <!-- svg-source:excalidraw -->
  
  <defs>
    <style>
      @font-face {
        font-family: "Virgil";
        src: url("https://excalidraw.com/Virgil.woff2");
      }
      @font-face {
        font-family: "Cascadia";
        src: url("https://excalidraw.com/Cascadia.woff2");
      }
    </style>
  </defs>
  <g stroke-linecap="round"><g transform="translate(1535.3043657209787 2012.5891984890227) rotate(0 71.41824627358335 -155.87528407802768)"><path d="M0.86 -1.96 C32.34 -7.22, 150.59 -8.17, 190.88 -32.59 C231.16 -57, 222.91 -127.8, 242.58 -148.46 C262.24 -169.12, 329.27 -133.06, 308.86 -156.57 C288.46 -180.07, 173 -263.81, 120.15 -289.51 C67.3 -315.21, 35.67 -319.51, -8.24 -310.77 C-52.14 -302.04, -118.64 -274.44, -143.27 -237.1 C-167.91 -199.75, -180.12 -126.46, -156.04 -86.7 C-131.96 -46.95, -25.02 -13.08, 1.2 1.42 M-2.11 3.14 C28.79 -1.79, 147.78 -5.62, 188.47 -30.44 C229.17 -55.25, 222.1 -125.02, 242.07 -145.75 C262.04 -166.48, 327.81 -131.05, 308.28 -154.8 C288.75 -178.55, 177.14 -263.06, 124.89 -288.26 C72.63 -313.47, 39.27 -314.25, -5.25 -306.03 C-49.78 -297.8, -116.87 -275.2, -142.27 -238.9 C-167.68 -202.6, -181.04 -127.86, -157.67 -88.22 C-134.31 -48.58, -29.01 -15.68, -2.1 -1.08" stroke="#ededed" stroke-width="4" fill="none"></path></g></g><g stroke-linecap="round"><g transform="translate(1757.8518342686493 1890.5885439155645) rotate(0 -14.796622633963636 136.69321767727445)"><path d="M-2.29 -1.93 C14.11 12.06, 72.52 43.67, 99.69 83.51 C126.87 123.35, 162.04 210.27, 160.78 237.13 C159.52 263.98, 119.86 238.88, 92.12 244.64 C64.39 250.4, 29.81 285.66, -5.61 271.68 C-41.03 257.71, -89.6 184.2, -120.39 160.77 C-151.19 137.34, -192.61 151.11, -190.37 131.1 C-188.13 111.09, -138.99 62.11, -106.96 40.71 C-74.94 19.3, -15.73 9.85, 1.78 2.68 M1.67 3.2 C17.55 17.68, 71.18 47.54, 97.26 86.97 C123.35 126.4, 158.92 213.21, 158.18 239.8 C157.44 266.38, 120.46 241.13, 92.81 246.47 C65.16 251.81, 28.58 286.42, -7.72 271.84 C-44.03 257.26, -94.96 182.86, -125 158.99 C-155.05 135.13, -190.69 148.47, -187.98 128.64 C-185.27 108.8, -139.87 61.28, -108.74 39.98 C-77.6 18.69, -19.13 6.87, -1.19 0.87" stroke="#ededed" stroke-width="4" fill="none"></path></g></g><g stroke-linecap="round"><g transform="translate(1367.1159753203096 1916.0609160275499) rotate(0 -388.58939151816764 483.4282446584783)"><path d="M1.78 2.34 C-6.93 7.1, -7.58 28.53, -52.84 28.27 C-98.11 28.02, -203.63 -21.86, -269.82 0.81 C-336.01 23.49, -390.15 117.19, -449.97 164.33 C-509.8 211.48, -580.4 249.66, -628.75 283.69 C-677.1 317.72, -696.1 331.83, -740.06 368.51 C-784.01 405.19, -857 453.52, -892.49 503.77 C-927.98 554.02, -988.64 593.46, -952.99 670.01 C-917.33 746.57, -783.74 937.57, -678.57 963.1 C-573.39 988.63, -431.62 888.5, -321.96 823.2 C-212.29 757.9, -89.89 679.03, -20.58 571.31 C48.74 463.6, 59.52 249.14, 93.95 176.9 C128.38 104.67, 201.5 167.66, 186.02 137.88 C170.54 108.1, 32.25 21.04, 1.05 -1.8 M-0.7 1.14 C-8.5 5.06, -2.59 23.42, -47.66 23.73 C-92.74 24.05, -204.14 -19.66, -271.16 3.01 C-338.19 25.69, -389.69 112.69, -449.82 159.79 C-509.95 206.88, -583.99 251.31, -631.92 285.59 C-679.85 319.88, -692.96 329.72, -737.38 365.5 C-781.8 401.28, -862.09 449.54, -898.45 500.3 C-934.81 551.05, -991.62 592.08, -955.52 670.02 C-919.43 747.97, -786.57 942.51, -681.88 967.98 C-577.18 993.46, -437.58 889.89, -327.36 822.87 C-217.13 755.85, -91.55 673.48, -20.52 565.86 C50.52 458.23, 64.2 248.7, 98.84 177.13 C133.48 105.56, 203.78 166.47, 187.3 136.41 C170.82 106.35, 31.35 19.52, -0.04 -3.22" stroke="#ededed" stroke-width="4" fill="none"></path></g></g><g stroke-linecap="round"><g transform="translate(674.1470281404199 2583.472639904478) rotate(0 83.08641037221128 507.0301322622786)"><path d="M1.94 2.74 C-30.53 -4.84, -142.37 -67.63, -194.36 -42.91 C-246.34 -18.2, -325.71 90.64, -309.98 151.04 C-294.24 211.44, -153.09 278.19, -99.95 319.46 C-46.82 360.73, 0.28 368.84, 8.82 398.65 C17.36 428.47, -43.03 441.25, -48.73 498.33 C-54.42 555.41, -44.57 674.79, -25.33 741.16 C-6.09 807.52, 55.23 849.97, 66.72 896.51 C78.2 943.04, 32.87 993.21, 43.57 1020.37 C54.27 1047.54, 60.37 1055, 130.94 1059.49 C201.51 1063.98, 423.15 1062.24, 466.97 1047.32 C510.79 1032.4, 432.46 988.24, 393.86 969.97 C355.26 951.7, 264.2 963.64, 235.36 937.69 C206.53 911.73, 212.8 887.13, 220.85 814.25 C228.9 741.38, 278.94 578.71, 283.64 500.45 C288.34 422.19, 265.65 393.12, 249.06 344.69 C232.47 296.26, 225.43 267.26, 184.1 209.86 C142.77 152.46, 31.45 35.58, 1.06 0.28 M-0.45 1.76 C-33.08 -4.38, -143.23 -64.82, -195.12 -40.78 C-247 -16.73, -327.57 85.72, -311.74 146.03 C-295.91 206.33, -154.35 278.7, -100.14 321.07 C-45.92 363.44, 4.49 369.92, 13.55 400.25 C22.62 430.59, -39.4 446.67, -45.75 503.07 C-52.09 559.48, -42.81 673.03, -24.52 738.68 C-6.23 804.33, 53.23 850.54, 63.98 896.97 C74.73 943.4, 28.63 990.12, 39.97 1017.26 C51.32 1044.4, 60.9 1054.51, 132.07 1059.81 C203.24 1065.1, 423.66 1062.96, 466.98 1049.01 C510.31 1035.07, 430.53 995.09, 392.03 976.13 C353.53 957.17, 264.79 962.2, 235.99 935.26 C207.19 908.32, 211.28 887.28, 219.23 814.51 C227.18 741.75, 279.61 576.48, 283.68 498.68 C287.76 420.88, 260.64 395.69, 243.68 347.71 C226.72 299.73, 222.77 268.54, 181.92 210.8 C141.07 153.06, 29.01 36.83, -1.4 1.3" stroke="#ededed" stroke-width="4" fill="none"></path></g></g><g stroke-linecap="round"><g transform="translate(324.07315938235024 2718.2244268269783) rotate(0 -28.951472198413967 431.42705094691473)"><path d="M-0.44 0.17 C12.31 20.75, 36.42 80.49, 75.77 125.84 C115.12 171.19, 211.26 219.58, 235.64 272.29 C260.03 324.99, 270.5 385.42, 222.1 442.05 C173.71 498.69, 5.4 571.66, -54.75 612.09 C-114.9 652.53, -148.16 646.86, -138.79 684.65 C-129.42 722.43, -2.59 808.78, 1.45 838.8 C5.5 868.83, -82.57 863.27, -114.52 864.79 C-146.47 866.31, -174.56 861.75, -190.23 847.94 C-205.91 834.13, -187.92 815.49, -208.56 781.92 C-229.2 748.35, -308.83 677.82, -314.07 646.52 C-319.31 615.22, -266.24 626.82, -240 594.12 C-213.77 561.41, -183.86 489.01, -156.66 450.28 C-129.47 411.54, -111.77 385.42, -76.81 361.7 C-41.85 337.98, 40.22 368.13, 53.11 307.97 C66 247.8, 9.73 51.65, 0.51 0.73 M-4.13 -2.21 C8.44 18.71, 34.39 75.03, 74.22 121.2 C114.04 167.37, 210.04 221.04, 234.82 274.82 C259.6 328.61, 270.46 387.75, 222.88 443.94 C175.31 500.13, 9.26 570.99, -50.65 611.97 C-110.55 652.95, -145.48 652.58, -136.53 689.81 C-127.57 727.03, -0.3 806.34, 3.08 835.32 C6.46 864.31, -83.42 862.1, -116.24 863.73 C-149.06 865.36, -178.79 858.73, -193.85 845.11 C-208.91 831.49, -186.67 816.03, -206.6 782.01 C-226.52 747.99, -307.46 672.62, -313.41 640.97 C-319.37 609.33, -268.65 624.08, -242.33 592.15 C-216.01 560.23, -182.94 487.81, -155.49 449.43 C-128.04 411.06, -112.46 385.77, -77.62 361.9 C-42.77 338.04, 40.11 365.89, 53.58 306.25 C67.06 246.62, 11.78 55.64, 3.23 4.08" stroke="#ededed" stroke-width="4" fill="none"></path></g></g><g stroke-linecap="round"><g transform="translate(1381.8898242326272 2500.866614465168) rotate(0 -11.959588393537501 475.6209370823897)"><path d="M0.09 1.27 C-38.53 43.97, -215.6 184.47, -232.04 254.62 C-248.48 324.77, -141.99 361.95, -98.56 422.17 C-55.13 482.39, -8.74 551.63, 28.56 615.95 C65.87 680.27, 125.45 763.37, 125.27 808.11 C125.08 852.85, 37.36 860.17, 27.46 884.39 C17.56 908.6, 44.53 948.94, 65.85 953.4 C87.18 957.87, 131.84 935.27, 155.43 911.18 C179.02 887.1, 206.6 846.07, 207.4 808.89 C208.21 771.72, 168.29 736.86, 160.25 688.14 C152.2 639.42, 173.24 589.37, 159.14 516.58 C145.05 443.78, 102.44 337.55, 75.67 251.37 C48.89 165.19, 10.68 41.7, -1.5 -0.5 M-3.31 -0.5 C-42.12 41.45, -217.3 179.16, -233.42 250.05 C-249.54 320.94, -143.55 363.43, -100.04 424.83 C-56.53 486.23, -9.4 554.51, 27.63 618.44 C64.66 682.36, 122.91 764.56, 122.15 808.39 C121.38 852.22, 32.13 857.66, 23.05 881.4 C13.97 905.14, 45.84 945.92, 67.67 950.83 C89.5 955.74, 130.16 933.86, 154.02 910.86 C177.89 887.85, 209.38 850.02, 210.86 812.8 C212.34 775.58, 171.59 737.72, 162.91 687.52 C154.23 637.32, 172.56 584.57, 158.79 511.58 C145.02 438.59, 107.06 335.32, 80.29 249.6 C53.53 163.88, 11.22 39.43, -1.78 -2.71" stroke="#ededed" stroke-width="4" fill="none"></path></g></g><g stroke-linecap="round"><g transform="translate(597.4994843230256 2055.9626686532174) rotate(47.48758995022013 27.542079965309995 384.9028626034267)"><path d="M-0.98 0.59 C-34.29 19.4, -181.25 69.77, -197.9 111.27 C-214.56 152.77, -143.05 189.63, -100.91 249.6 C-58.77 309.56, 15.06 408.77, 54.95 471.05 C94.84 533.34, 140.81 587.68, 138.43 623.31 C136.05 658.93, 52.44 660.88, 40.67 684.78 C28.91 708.68, 42.79 760.51, 67.83 766.7 C92.86 772.9, 159.43 743.75, 190.9 721.93 C222.36 700.11, 254.12 670.43, 256.63 635.8 C259.14 601.17, 217.32 569.05, 205.95 514.16 C194.58 459.27, 206.89 382.95, 188.42 306.47 C169.95 229.99, 126.96 106.68, 95.11 55.3 C63.26 3.92, 12.75 7.46, -2.68 -1.82 M3.69 -1.55 C-29.95 17.91, -181.12 72.74, -198.8 115.08 C-216.48 157.42, -144.97 194.02, -102.41 252.5 C-59.84 310.97, 16.84 405.18, 56.58 465.92 C96.32 526.66, 138.13 580.96, 136.03 616.94 C133.94 652.93, 55.19 656.17, 44.01 681.82 C32.84 707.48, 44.74 764.37, 68.99 770.85 C93.24 777.32, 158.64 743.47, 189.5 720.66 C220.37 697.84, 251 668.42, 254.17 633.96 C257.35 599.5, 220.62 568.31, 208.57 513.91 C196.53 459.52, 200.08 384.29, 181.9 307.59 C163.71 230.89, 130.36 104.33, 99.45 53.71 C68.54 3.09, 12.6 13.02, -3.59 3.88" stroke="#ededed" stroke-width="4" fill="none"></path></g></g><g stroke-linecap="round"><g transform="translate(641.9072920666872 2158.0351820091096) rotate(4.454050121044494 251.833465139944 -45.60233815980678)"><path d="M-2.62 0.42 C9.33 21.91, 23.79 115.46, 73.09 127.42 C122.4 139.37, 218.73 111.85, 293.22 72.14 C367.7 32.43, 498.82 -62.43, 520.02 -110.83 C541.23 -159.24, 507.73 -237.6, 420.46 -218.28 C333.19 -198.96, 53.79 -52.41, -3.6 5.1 C-60.99 62.61, 63.47 106.27, 76.12 126.78 M1.15 -1.82 C12.51 18.91, 21.65 110.13, 70.28 122.8 C118.9 135.46, 217.76 112.62, 292.9 74.16 C368.03 35.69, 500.38 -59.24, 521.08 -108 C541.78 -156.77, 505.19 -237.05, 417.09 -218.43 C329 -199.8, 50.34 -53.27, -7.5 3.74 C-65.34 60.75, 55.9 102.91, 70.06 123.64" stroke="#ededed" stroke-width="4" fill="none"></path></g></g><g stroke-linecap="round"><g transform="translate(3248.1686054596344 1541.5665425753268) rotate(349.8649437874517 73.65546841435338 -175.25459755208487)"><path d="M0.49 1.67 C35.63 -3.6, 167.47 -5.53, 211.63 -31.25 C255.79 -56.96, 247.51 -128.56, 265.46 -152.61 C283.41 -176.66, 347.33 -144.49, 319.32 -175.55 C291.31 -206.62, 168.6 -318.18, 97.4 -339.02 C26.19 -359.85, -62.24 -342.5, -107.9 -300.57 C-153.56 -258.65, -194.92 -137.18, -176.55 -87.46 C-158.19 -37.74, -26.98 -17.25, 2.29 -2.25 M-2.69 0.11 C33.33 -4.76, 171.64 -2.9, 217.28 -27.87 C262.91 -52.83, 253.87 -125.55, 271.12 -149.66 C288.38 -173.77, 349.12 -139.9, 320.79 -172.52 C292.47 -205.13, 173.35 -324.8, 101.18 -345.35 C29.01 -365.91, -66.07 -338.36, -112.21 -295.85 C-158.34 -253.35, -194.5 -138.91, -175.62 -90.32 C-156.73 -41.72, -28.69 -19.44, 1.11 -4.27" stroke="#ededed" stroke-width="4" fill="none"></path></g></g><g stroke-linecap="round"><g transform="translate(3511.7468809252587 1393.0197525893943) rotate(359.40281045874497 -43.23574081819112 122.04966926410793)"><path d="M1.67 -1.39 C17.16 14.83, 71.68 64.34, 93.34 97.83 C115 131.32, 137.1 180.36, 131.64 199.54 C126.18 218.71, 89.82 205.46, 60.57 212.88 C31.32 220.3, -10.1 249.31, -43.84 244.06 C-77.58 238.81, -112.66 196.93, -141.84 181.37 C-171.03 165.81, -221.6 173.37, -218.95 150.71 C-216.3 128.05, -162.86 70.46, -125.94 45.4 C-89.02 20.35, -18.14 7.5, 2.56 0.39 M-0.87 4.03 C14.17 20.49, 69.09 68.48, 90.85 100.3 C112.61 132.11, 134.55 175.93, 129.68 194.9 C124.8 213.86, 90.85 205.59, 61.58 214.1 C32.31 222.61, -12.34 251.94, -45.93 245.98 C-79.52 240.01, -111.44 194.53, -139.97 178.33 C-168.5 162.13, -220.29 171.15, -217.11 148.78 C-213.94 126.4, -157.12 69.31, -120.94 44.07 C-84.75 18.83, -20.01 4.15, 0.01 -2.66" stroke="#ededed" stroke-width="4" fill="none"></path></g></g><g stroke-linecap="round"><g transform="translate(3234.4925198382966 1566.9074646328797) rotate(342.2441853306421 -375.5876252046081 453.89801256679675)"><path d="M-1.39 -0.46 C-15.05 -2.55, -37.66 -13.09, -81.44 -10.9 C-125.22 -8.72, -203.63 -10.19, -264.08 12.68 C-324.54 35.54, -394.16 87.24, -444.16 126.3 C-494.16 165.36, -523.43 195.89, -564.08 247.03 C-604.73 298.16, -646.42 382.2, -688.06 433.1 C-729.7 484, -769.41 497.89, -813.92 552.42 C-858.42 606.95, -962.99 700.31, -955.09 760.28 C-947.2 820.24, -859.35 933.05, -766.57 912.21 C-673.78 891.37, -517.49 706.95, -398.39 635.24 C-279.29 563.52, -135.83 558, -51.96 481.92 C31.9 405.84, 62.3 235.56, 104.82 178.76 C147.34 121.95, 220.8 170.64, 203.17 141.08 C185.55 111.51, 33.27 25.17, -0.91 1.35 M3.05 -3.18 C-9.78 -4.97, -31.53 -9.23, -76.2 -7.43 C-120.88 -5.64, -203.54 -13.94, -265 7.57 C-326.46 29.09, -394.7 81.83, -444.96 121.65 C-495.22 161.47, -526.5 194.93, -566.56 246.48 C-606.61 298.04, -643.1 379.27, -685.3 430.97 C-727.51 482.66, -774.34 501.68, -819.8 556.66 C-865.25 611.64, -966.3 700.87, -958.05 760.86 C-949.8 820.86, -862.69 937.6, -770.3 916.65 C-677.91 895.7, -523.47 707.3, -403.7 635.17 C-283.94 563.04, -136.02 560.21, -51.72 483.88 C32.59 407.54, 59.45 234.63, 102.12 177.17 C144.8 119.71, 221.85 168.39, 204.32 139.13 C186.79 109.88, 31.35 25.52, -3.07 1.63" stroke="#ededed" stroke-width="4" fill="none"></path></g></g><g stroke-linecap="round"><g transform="translate(2753.898091030869 2366.6181450612903) rotate(0 47.935880516343786 544.0127211233536)"><path d="M-0.46 -2.15 C-36.54 -17.7, -158.13 -111.03, -214.82 -94.68 C-271.52 -78.34, -358.33 28.97, -340.63 95.91 C-322.94 162.84, -166.06 256.92, -108.65 306.91 C-51.23 356.89, -11.53 360.35, 3.85 395.83 C19.22 431.32, -17.58 469.07, -16.41 519.83 C-15.25 570.59, -3.88 620.92, 10.83 700.4 C25.55 779.89, 66.85 921.63, 71.89 996.75 C76.93 1071.86, 22.23 1121.48, 41.07 1151.1 C59.92 1180.71, 119.4 1169.72, 184.98 1174.43 C250.56 1179.15, 409 1195.27, 434.55 1179.4 C460.1 1163.52, 376.54 1111.05, 338.28 1079.17 C300.02 1047.29, 228.96 1043.22, 205.01 988.11 C181.06 933, 193.71 819.15, 194.58 748.51 C195.45 677.87, 207.34 615.67, 210.24 564.28 C213.15 512.88, 209.09 479.59, 212 440.14 C214.92 400.69, 263.33 401.19, 227.73 327.59 C192.13 253.99, 36.45 52.96, -1.6 -1.47 M-4.15 2.86 C-40.79 -13.38, -160.91 -114.6, -217.22 -98.81 C-273.53 -83.01, -358.99 30.86, -342.01 97.63 C-325.03 164.41, -173.58 252.11, -115.32 301.87 C-57.06 351.62, -9.55 360.05, 7.55 396.17 C24.64 432.3, -13.35 467.09, -12.76 518.62 C-12.16 570.14, -2.81 625.74, 11.13 705.33 C25.07 784.92, 65.25 922.16, 70.86 996.16 C76.48 1070.16, 26.79 1119.89, 44.83 1149.34 C62.88 1178.79, 114.14 1167.35, 179.16 1172.86 C244.18 1178.36, 407.64 1198.04, 434.94 1182.36 C462.25 1166.68, 381.23 1111.56, 343 1078.77 C304.77 1045.99, 230.44 1040.96, 205.55 985.67 C180.66 930.38, 192.91 817.61, 193.65 747.03 C194.39 676.44, 207.85 612.96, 210.01 562.15 C212.16 511.34, 203.98 481.07, 206.57 442.14 C209.15 403.21, 259.44 402.49, 225.54 328.56 C191.63 254.64, 41.42 53, 3.14 -1.4" stroke="#ededed" stroke-width="4" fill="none"></path></g></g><g stroke-linecap="round"><g transform="translate(2398.0432075528133 2497.519998017335) rotate(0 -59.586705445976804 510.552691333899)"><path d="M-2.15 -0.29 C13.07 12.9, 52.7 50.46, 89.95 78.69 C127.2 106.92, 194.72 117.12, 221.38 169.07 C248.03 221.03, 296.03 314.18, 249.89 390.42 C203.76 466.66, 13.91 565.05, -55.43 626.5 C-124.78 687.95, -168.78 698.57, -166.18 759.13 C-163.58 819.69, -42.07 945.73, -39.85 989.86 C-37.63 1033.98, -122.58 1023.28, -152.85 1023.86 C-183.12 1024.45, -198.19 1016.25, -221.47 993.38 C-244.76 970.51, -264.47 927.6, -292.54 886.65 C-320.6 845.69, -402.15 790.48, -389.84 747.67 C-377.53 704.85, -262.1 670.79, -218.68 629.75 C-175.25 588.71, -156.01 545.76, -129.28 501.42 C-102.54 457.08, -90.99 398.12, -58.26 363.73 C-25.53 329.34, 57.69 355.45, 67.11 295.06 C76.53 234.68, 9.67 50.87, -1.75 1.42 M1.88 -2.92 C17 9.43, 51.11 46.13, 88.6 74.11 C126.09 102.08, 199.68 112.01, 226.83 164.92 C253.97 217.83, 297.75 314.43, 251.47 391.56 C205.19 468.7, 19.44 565.66, -50.85 627.74 C-121.13 689.83, -172.24 704.04, -170.25 764.09 C-168.25 824.15, -41.39 945.07, -38.86 988.07 C-36.33 1031.08, -124.22 1021.62, -155.06 1022.12 C-185.9 1022.63, -201.22 1013.94, -223.91 991.12 C-246.61 968.3, -263.81 925.5, -291.23 885.21 C-318.65 844.93, -400.08 792.15, -388.44 749.41 C-376.8 706.66, -264.61 670.28, -221.4 628.75 C-178.2 587.22, -157.41 544.62, -129.23 500.21 C-101.05 455.79, -85.03 396.55, -52.32 362.27 C-19.6 327.98, 58.4 355.46, 67.08 294.51 C75.75 233.55, 10.35 45.71, -0.26 -3.49" stroke="#ededed" stroke-width="4" fill="none"></path></g></g><g stroke-linecap="round"><g transform="translate(3109.826997798413 2030.6375700854078) rotate(0 23.088161327579343 383.63612954049927)"><path d="M-0.29 1.64 C-24.51 25.58, -128.56 92.88, -145.78 141.52 C-163 190.17, -132.66 239.76, -103.59 293.52 C-74.52 347.29, -4.05 412.63, 28.64 464.11 C61.34 515.59, 93.35 565.7, 92.58 602.41 C91.81 639.11, 35.41 657.37, 24.03 684.36 C12.65 711.36, 5.26 754.1, 24.3 764.36 C43.34 774.63, 109.25 768.5, 138.28 745.95 C167.3 723.41, 197.52 667.42, 198.45 629.11 C199.38 590.8, 164.91 571.95, 143.87 516.07 C122.83 460.19, 91.63 354.37, 72.2 293.82 C52.77 233.28, 39.11 202.08, 27.3 152.8 C15.49 103.51, 6.21 23.81, 1.35 -1.9 M-3.9 0.06 C-28.38 24.45, -130.9 95.61, -147.59 143.77 C-164.28 191.93, -133.24 235.26, -104.02 288.99 C-74.79 342.72, -4.48 414.98, 27.76 466.14 C60 517.29, 89.7 560.06, 89.43 595.93 C89.16 631.8, 37.96 653.8, 26.15 681.38 C14.34 708.96, -1 750.52, 18.57 761.4 C38.14 772.28, 114.07 767.9, 143.56 746.66 C173.05 725.42, 195.21 672.48, 195.51 633.97 C195.8 595.47, 165.84 571.85, 145.32 515.64 C124.79 459.44, 92.6 357.48, 72.37 296.75 C52.15 236.03, 35.59 200.14, 23.97 151.3 C12.34 102.47, 5.94 29.43, 2.63 3.76" stroke="#ededed" stroke-width="4" fill="none"></path></g></g><g stroke-linecap="round"><g transform="translate(2582.8448218247695 1906.3032653829064) rotate(44.72443220984423 25.699189970360806 379.19511477493165)"><path d="M1.64 0.79 C-26.83 13.21, -158.83 38.76, -172.93 74.25 C-187.02 109.73, -119.73 151.86, -82.92 213.7 C-46.1 275.53, 13.56 380.89, 47.97 445.27 C82.39 509.65, 125.35 562.14, 123.58 599.98 C121.81 637.82, 47.49 646.5, 37.36 672.31 C27.23 698.12, 40.78 748.53, 62.82 754.84 C84.85 761.15, 143.03 733.58, 169.56 710.18 C196.1 686.77, 225.35 665.46, 222.04 614.41 C218.72 563.37, 167.86 466.91, 149.68 403.91 C131.5 340.91, 127.97 288.9, 112.95 236.42 C97.92 183.95, 78.67 128.78, 59.53 89.07 C40.39 49.35, 8.27 12.75, -1.9 -1.86 M-0.92 -1.25 C-28.35 10.47, -154.1 34.52, -167.91 70.62 C-181.71 106.72, -119.71 152.41, -83.73 215.34 C-47.75 278.27, 13.8 384.14, 47.98 448.2 C82.16 512.26, 122.65 562.51, 121.35 599.68 C120.05 636.86, 49.63 644.63, 40.16 671.25 C30.7 697.86, 43.13 752.85, 64.55 759.37 C85.96 765.89, 141.71 735.14, 168.65 710.37 C195.6 685.61, 228.98 662.13, 226.22 610.78 C223.47 559.43, 170.78 464.26, 152.13 402.26 C133.48 340.25, 128.94 290.99, 114.31 238.75 C99.68 186.51, 83.79 127.95, 64.34 88.8 C44.89 49.64, 8.99 18.34, -2.4 3.82" stroke="#ededed" stroke-width="4" fill="none"></path></g></g><g stroke-linecap="round"><g transform="translate(2607.8499136645532 1834.6884594611097) rotate(328.00889983119845 254.73294435686583 -42.64559764451451)"><path d="M0.79 -2.55 C13.3 18.07, 28.2 113.05, 74.77 125.34 C121.34 137.64, 204.95 106.1, 280.2 71.23 C355.46 36.36, 505.17 -36.7, 526.31 -83.88 C547.45 -131.06, 495.35 -226.4, 407.05 -211.85 C318.76 -197.3, 52.64 -52.95, -3.46 3.4 C-59.55 59.76, 57.59 106.43, 70.51 126.29 M-2.23 2.24 C10.17 21.92, 25.95 109.41, 73.92 121.33 C121.88 133.25, 210.02 108.76, 285.57 73.76 C361.12 38.76, 506.31 -41.13, 527.22 -88.67 C548.12 -136.21, 500.1 -226.43, 411 -211.46 C321.9 -196.49, 49.28 -54.85, -7.37 1.16 C-64.02 57.17, 57.76 104.61, 71.09 124.62" stroke="#ededed" stroke-width="4" fill="none"></path></g></g><g stroke-linecap="round"><g transform="translate(4800.253601810833 1057.8245766184018) rotate(338.75055088121155 72.20958983062349 -226.29855260947886)"><path d="M-0.09 -0.35 C31.45 -2.21, 143.07 15.46, 190.94 -12.99 C238.82 -41.45, 260.78 -136.61, 287.17 -171.08 C313.56 -205.55, 379.41 -174.03, 349.29 -219.8 C319.17 -265.57, 189.88 -417.54, 106.46 -445.71 C23.04 -473.87, -99.93 -446.89, -151.23 -388.8 C-202.53 -330.7, -226.48 -162.1, -201.34 -97.16 C-176.21 -32.22, -34.14 -14.91, -0.42 0.83 M-3.59 -3.02 C27.46 -4.27, 139.49 17.86, 188.88 -9.61 C238.26 -37.08, 266.13 -131.89, 292.71 -167.82 C319.29 -203.75, 378.67 -179.13, 348.35 -225.17 C318.04 -271.21, 194.89 -416.54, 110.81 -444.07 C26.72 -471.6, -104.15 -447.87, -156.14 -390.35 C-208.14 -332.82, -226.67 -164.04, -201.15 -98.9 C-175.64 -33.77, -36.19 -16.21, -3.07 0.47" stroke="#ededed" stroke-width="4" fill="none"></path></g></g><g stroke-linecap="round"><g transform="translate(6824.60772664443 763.8160803804872) rotate(331.54989658388854 66.55906155617186 -236.93945970688654)"><path d="M-1.15 -0.18 C31.97 -2.63, 151.45 15.58, 199.39 -14.09 C247.33 -43.75, 262.01 -141.2, 286.51 -178.18 C311.02 -215.16, 375.39 -187.98, 346.4 -235.95 C317.42 -283.91, 196.84 -437.26, 112.61 -465.97 C28.38 -494.67, -106.06 -468.63, -158.96 -408.19 C-211.85 -347.76, -231.45 -171.3, -204.76 -103.35 C-178.06 -35.4, -33.05 -18.15, 1.22 -0.51 M3.42 -2.75 C36.22 -4.86, 150.71 17.7, 197.84 -11.03 C244.97 -39.76, 261.5 -138.16, 286.21 -175.14 C310.93 -212.13, 375.61 -184.49, 346.13 -232.93 C316.66 -281.37, 193.07 -437.39, 109.35 -465.79 C25.63 -494.18, -102.82 -463.21, -156.18 -403.3 C-209.54 -343.39, -236.75 -173.27, -210.82 -106.32 C-184.88 -39.37, -35.24 -19.42, -0.55 -1.6" stroke="#ededed" stroke-width="4" fill="none"></path></g></g><g stroke-linecap="round"><g transform="translate(8603.995366638715 735.6185693465083) rotate(331.54989658388854 93.81975654087228 -258.1646353482795)"><path d="M2 -2.77 C36.45 -5.55, 151.45 14.95, 205.54 -15.23 C259.62 -45.4, 301.81 -134.18, 326.51 -183.81 C351.22 -233.44, 378.54 -261.58, 353.74 -313.01 C328.95 -364.44, 256.98 -462.67, 177.76 -492.38 C98.54 -522.1, -64.35 -541.5, -121.57 -491.3 C-178.79 -441.1, -185.87 -273.06, -165.55 -191.19 C-145.23 -109.32, -26.81 -31.99, 0.33 -0.1 M-0.36 1.9 C33.86 -0.69, 149.35 19.16, 203.55 -12.54 C257.74 -44.24, 299.83 -137.43, 324.82 -188.3 C349.81 -239.17, 378.53 -267.13, 353.51 -317.78 C328.49 -368.43, 253.47 -464.1, 174.71 -492.21 C95.95 -520.32, -62.35 -537.47, -119.05 -486.46 C-175.75 -435.45, -185.02 -267.08, -165.5 -186.17 C-145.98 -105.25, -29.58 -31.49, -1.92 -0.96" stroke="#ededed" stroke-width="4" fill="none"></path></g></g><g stroke-linecap="round"><g transform="translate(5090.91486000332 851.1638194904721) rotate(335.05501370726887 -41.95852730454317 117.32853573206421)"><path d="M-0.35 0.31 C11.56 10.83, 51.49 36.42, 69.63 63.03 C87.78 89.64, 113.08 138.96, 108.52 159.95 C103.96 180.93, 66.81 176.36, 42.25 188.93 C17.7 201.49, -11.99 237.77, -38.81 235.33 C-65.64 232.88, -93.95 189.58, -118.69 174.25 C-143.44 158.92, -189.35 164.73, -187.26 143.33 C-185.17 121.94, -136.92 69.44, -106.16 45.88 C-75.4 22.32, -20.44 9.95, -2.72 1.96 M-3.99 -1.98 C7.67 8.81, 48.67 38.11, 67.15 65.37 C85.62 92.62, 110.81 140.65, 106.86 161.54 C102.92 182.43, 68.24 178.19, 43.5 190.71 C18.76 203.23, -13.81 238.58, -41.57 236.64 C-69.34 234.71, -97.87 195.23, -123.1 179.11 C-148.32 162.99, -195.44 162.18, -192.95 139.93 C-190.45 117.68, -140.37 68.96, -108.13 45.6 C-75.89 22.24, -17.86 8.07, 0.5 -0.24" stroke="#ededed" stroke-width="4" fill="none"></path></g></g><g stroke-linecap="round"><g transform="translate(7109.490825578847 539.1276514529362) rotate(327.60454273378633 -42.726655868992566 115.63976881312115)"><path d="M-0.18 1.26 C11.88 12.81, 53.9 41.49, 72.95 68.11 C92.01 94.73, 118.97 140.55, 114.16 160.97 C109.35 181.38, 70.39 178.54, 44.07 190.59 C17.76 202.65, -14.81 235.31, -43.74 233.28 C-72.66 231.25, -103.4 193.19, -129.47 178.44 C-155.54 163.69, -202.81 166.91, -200.14 144.79 C-197.48 122.67, -147.26 69.75, -113.48 45.71 C-79.71 21.68, -16.58 7.95, 2.5 0.58 M-3.73 -0.52 C7.82 10.42, 50.81 37.32, 70.14 64.61 C89.48 91.9, 116.46 141.76, 112.28 163.23 C108.1 184.69, 70.33 181.68, 45.06 193.41 C19.8 205.15, -10.57 236.37, -39.31 233.64 C-68.06 230.92, -100.91 192.27, -127.43 177.05 C-153.95 161.82, -200.29 164.22, -198.42 142.27 C-196.55 120.33, -149.24 69.48, -116.18 45.37 C-83.13 21.26, -20.01 4.98, -0.09 -2.37" stroke="#ededed" stroke-width="4" fill="none"></path></g></g><g stroke-linecap="round"><g transform="translate(8915.297504584223 534.2853333653723) rotate(317.79089081595083 -75.56705258186821 115.1975936481036)"><path d="M-2.77 0.45 C6.35 6.25, 45.27 16.45, 56.16 36.75 C67.05 57.05, 69.2 102.42, 62.58 122.24 C55.96 142.07, 37.03 137.02, 16.45 155.67 C-4.12 174.32, -35.8 230.09, -60.88 234.14 C-85.96 238.19, -107.63 205.57, -134.04 179.97 C-160.45 154.38, -216.13 110, -219.36 80.57 C-222.6 51.14, -190.05 17.12, -153.46 3.38 C-116.87 -10.36, -25.71 -1.26, 0.18 -1.87 M0.92 -1.77 C10.81 4.35, 51.47 19.44, 61.62 40.49 C71.77 61.54, 69.03 104.84, 61.81 124.54 C54.59 144.24, 38.02 140.42, 18.3 158.7 C-1.41 176.99, -31.4 229.92, -56.46 234.25 C-81.52 238.59, -105.09 210.81, -132.06 184.69 C-159.03 158.58, -214.3 106.73, -218.28 77.57 C-222.26 48.41, -191.7 22.25, -155.94 9.74 C-120.17 -2.78, -29.01 4.36, -3.67 2.48" stroke="#ededed" stroke-width="4" fill="none"></path></g></g><g stroke-linecap="round"><g transform="translate(4964.256948108608 1129.2114760815803) rotate(329.2539449673719 -375.2890265456574 521.180062116226)"><path d="M0.31 -0.46 C-9.34 4.82, -16.46 22.88, -58 31.32 C-99.54 39.76, -189.71 26.82, -248.94 50.17 C-308.18 73.52, -365.29 127.21, -413.39 171.43 C-461.5 215.65, -499.69 264.86, -537.56 315.51 C-575.43 366.16, -607.27 427.97, -640.63 475.32 C-674 522.67, -684.92 540.4, -737.76 599.62 C-790.59 658.84, -962.95 756.83, -957.65 830.66 C-952.35 904.49, -829.06 1070.85, -705.95 1042.61 C-582.85 1014.37, -323.56 738.31, -219.01 661.19 C-114.45 584.07, -125.6 614.05, -78.62 579.87 C-31.64 545.69, 27.99 516.23, 62.87 456.12 C97.75 396, 106.92 268.93, 130.64 219.19 C154.36 169.45, 226.67 193.84, 205.2 157.68 C183.74 121.52, 36.27 28.95, 1.85 2.22 M-2.96 -3.17 C-11.75 2.65, -12.78 27.02, -52.89 35.1 C-93 43.18, -183.51 23.47, -243.63 45.3 C-303.75 67.14, -364.13 120.77, -413.63 166.11 C-463.13 211.45, -503.14 265.97, -540.64 317.34 C-578.14 368.7, -605.99 427.7, -638.63 474.3 C-671.27 520.89, -682.98 536.44, -736.47 596.89 C-789.96 657.35, -964.15 763.26, -959.55 837.02 C-954.94 910.77, -832.37 1068.97, -708.83 1039.43 C-585.29 1009.88, -323.64 737.16, -218.3 659.75 C-112.96 582.33, -123.09 609.13, -76.77 574.95 C-30.45 540.76, 24.77 514.13, 59.62 454.63 C94.47 395.13, 108.14 267.28, 132.33 217.94 C156.51 168.6, 226.18 194.56, 204.73 158.59 C183.28 122.62, 37.68 28.75, 3.63 2.12" stroke="#ededed" stroke-width="4" fill="none"></path></g></g><g stroke-linecap="round"><g transform="translate(7164.789409051869 931.1689243511682) rotate(317.97684448780456 -434.902013559908 505.6755104081798)"><path d="M1.26 -1.06 C-7.72 4.33, -11.92 23.35, -55.03 32.13 C-98.14 40.91, -195.29 27.73, -257.4 51.62 C-319.5 75.5, -377.17 130.07, -427.68 175.44 C-478.2 220.8, -521.54 271.11, -560.48 323.81 C-599.42 376.51, -627.21 441.97, -661.32 491.64 C-695.43 541.31, -709.43 558.99, -765.12 621.82 C-820.8 684.66, -995.47 803.5, -995.45 868.64 C-995.43 933.79, -878.21 1033.33, -765.01 1012.71 C-651.81 992.09, -422.97 804.35, -316.24 744.93 C-209.51 685.51, -186.23 701.09, -124.61 656.2 C-62.99 611.3, 14.59 542.46, 53.49 475.58 C92.39 408.69, 98.34 310.56, 108.79 254.87 C119.24 199.17, 134.54 183.97, 116.21 141.41 C97.88 98.86, 17.86 23.09, -1.17 -0.45 M-1.49 -4.1 C-10.49 1.78, -12.66 25.81, -55.76 35.68 C-98.85 45.56, -198.2 31.54, -260.06 55.14 C-321.91 78.74, -377.58 132.58, -426.89 177.3 C-476.19 222.01, -516.09 271.42, -555.87 323.44 C-595.65 375.45, -631.05 440.23, -665.56 489.39 C-700.07 538.54, -707.63 555.07, -762.94 618.37 C-818.25 681.67, -996.46 803.93, -997.41 869.2 C-998.36 934.46, -882.61 1030.76, -768.64 1009.97 C-654.67 989.18, -421.13 803.17, -313.59 744.43 C-206.05 685.69, -185.22 702.32, -123.41 657.52 C-61.6 612.72, 19.69 543.09, 57.3 475.64 C94.9 408.2, 91.41 308.74, 102.2 252.84 C112.99 196.95, 139.23 182.73, 122.03 140.26 C104.82 97.78, 19.82 20.82, -1.03 -2.02" stroke="#ededed" stroke-width="4" fill="none"></path></g></g><g stroke-linecap="round"><g transform="translate(9134.254917681525 909.1478584745664) rotate(311.8054814280601 -464.7926436120324 519.8823962595188)"><path d="M0.45 -1.74 C-23.14 -1.79, -93.88 -14.65, -139.55 -3.07 C-185.23 8.5, -221.06 22.82, -273.59 67.71 C-326.11 112.61, -394.03 199.91, -454.72 266.3 C-515.4 332.68, -580.24 405.74, -637.68 466.01 C-695.13 526.28, -740.46 589.25, -799.39 627.94 C-858.32 666.63, -950.35 655.34, -991.25 698.13 C-1032.16 740.91, -1068.73 826.64, -1044.82 884.64 C-1020.91 942.65, -973.85 1072.48, -847.8 1046.17 C-721.75 1019.86, -425.29 816.64, -288.51 726.81 C-151.72 636.97, -81.45 588.38, -27.07 507.15 C27.32 425.92, 12.81 299.16, 37.78 239.44 C62.76 179.72, 129.19 188.93, 122.77 148.84 C116.35 108.76, 20.2 23.89, -0.72 -1.06 M-2.74 3.49 C-26.87 2.9, -96.1 -17.04, -141.68 -7.04 C-187.26 2.95, -224.21 17.58, -276.21 63.45 C-328.22 109.32, -394.19 201.13, -453.71 268.15 C-513.23 335.18, -576.03 406.1, -633.33 465.58 C-690.63 525.07, -738.15 586.83, -797.52 625.05 C-856.89 663.27, -949.13 651.75, -989.56 694.89 C-1029.98 738.04, -1064.32 825.76, -1040.08 883.93 C-1015.84 942.11, -969.66 1070.33, -844.12 1043.92 C-718.58 1017.52, -421.95 814.59, -286.84 725.52 C-151.73 636.46, -87.06 590.49, -33.44 509.54 C20.18 428.59, 9.95 300.18, 34.87 239.84 C59.8 179.51, 122.39 187.87, 116.12 147.54 C109.84 107.22, 17.15 22.95, -2.77 -2.08" stroke="#ededed" stroke-width="4" fill="none"></path></g></g><g stroke-linecap="round"><g transform="translate(4700.17828227808 2029.8091999068297) rotate(359.0391178944761 61.694743557354286 683.2677313752233)"><path d="M-0.46 -2.38 C-45.29 -23.08, -198.1 -144.62, -269.34 -123.85 C-340.57 -103.09, -449.68 37.56, -427.87 122.22 C-406.05 206.89, -211.39 321.78, -138.43 384.13 C-65.47 446.49, -10.06 452.06, 9.89 496.37 C29.84 540.69, -19.96 585.67, -18.73 650.02 C-17.5 714.36, 0.08 781.75, 17.27 882.44 C34.46 983.13, 78.3 1161.05, 84.41 1254.16 C90.53 1347.28, 29.76 1403.64, 53.94 1441.14 C78.11 1478.65, 146.87 1472.56, 229.47 1479.18 C312.08 1485.81, 516.87 1501.28, 549.56 1480.91 C582.24 1460.54, 474.04 1396.28, 425.61 1356.99 C377.17 1317.7, 288.97 1313.84, 258.93 1245.17 C228.89 1176.5, 243.72 1034.19, 245.36 944.96 C247.01 855.72, 266.02 775.03, 268.79 709.74 C271.56 644.45, 259.13 602.43, 262 553.22 C264.86 504.02, 330 506.59, 285.98 414.51 C241.97 322.42, 45.14 70.16, -2.09 0.72 M-4.15 2.5 C-49.29 -18, -200.61 -142.08, -271.42 -121.74 C-342.23 -101.41, -451.39 39.7, -429.01 124.51 C-406.63 209.32, -209.86 325.23, -137.14 387.13 C-64.42 449.04, -11.77 452.6, 7.32 495.97 C26.41 539.33, -24.59 583.37, -22.6 647.34 C-20.61 711.3, 0.61 778.6, 19.24 879.78 C37.86 980.97, 84.02 1160.15, 89.16 1254.43 C94.3 1348.7, 26.45 1407.95, 50.07 1445.41 C73.7 1482.88, 148.75 1472.88, 230.91 1479.2 C313.08 1485.52, 509.81 1503.66, 543.07 1483.32 C576.32 1462.97, 477.57 1396.95, 430.43 1357.13 C383.28 1317.32, 291.06 1313.02, 260.17 1244.41 C229.28 1175.81, 243.3 1034.96, 245.07 945.51 C246.84 856.06, 267.79 772.8, 270.77 707.71 C273.76 642.63, 260.79 603.5, 262.98 555.02 C265.16 506.53, 327.3 508.97, 283.87 416.8 C240.44 324.63, 49.57 71.89, 2.38 1.97" stroke="#ededed" stroke-width="4" fill="none"></path></g></g><g stroke-linecap="round"><g transform="translate(6885.286425705868 1901.0799703750147) rotate(359.0391178944761 -30.46834092184804 791.5420481024779)"><path d="M-1.06 2.78 C-39.11 -9.63, -167.47 -90.02, -228.51 -73.19 C-289.55 -56.35, -357.8 32.49, -367.3 103.8 C-376.79 175.1, -323.71 263.34, -285.5 354.64 C-247.29 445.95, -159.02 574.13, -138.05 651.61 C-117.09 729.09, -161.15 748.77, -159.71 819.53 C-158.27 890.29, -144.13 980.1, -129.4 1076.17 C-114.68 1172.24, -76.2 1307.08, -71.37 1395.95 C-66.54 1484.81, -119.85 1567.6, -100.42 1609.35 C-81 1651.1, -22.16 1640.2, 45.19 1646.46 C112.55 1652.71, 276.57 1669.21, 303.72 1646.86 C330.88 1624.51, 247.63 1556.34, 208.12 1512.36 C168.62 1468.37, 86.89 1455.02, 66.68 1382.97 C46.46 1310.92, 78.57 1165.73, 86.82 1080.06 C95.08 994.39, 109.15 926.7, 116.21 868.98 C123.28 811.25, 127.24 777.43, 129.21 733.71 C131.18 689.99, 156.33 732.93, 128.05 606.65 C99.76 480.37, -12.32 81.58, -40.5 -23.99 M3.57 1.82 C-34.86 -10.36, -168.78 -87.96, -230.82 -70.41 C-292.87 -52.86, -359.56 35.94, -368.7 107.12 C-377.84 178.31, -324.75 265.61, -285.66 356.69 C-246.57 447.77, -155.76 576.76, -134.17 653.6 C-112.59 730.44, -157.17 747.76, -156.17 817.73 C-155.17 887.71, -142.12 977.17, -128.16 1073.46 C-114.21 1169.74, -76.49 1306.55, -72.44 1395.46 C-68.38 1484.37, -123.85 1565.2, -103.85 1606.93 C-83.85 1648.65, -20.31 1639.04, 47.57 1645.83 C115.46 1652.63, 277.1 1669.85, 303.48 1647.69 C329.86 1625.53, 245.25 1556.06, 205.86 1512.86 C166.47 1469.67, 87.37 1460.82, 67.14 1388.51 C46.91 1316.19, 76.19 1165.59, 84.46 1078.97 C92.72 992.35, 108.86 925.73, 116.74 868.76 C124.63 811.79, 129.12 781.71, 131.75 737.12 C134.38 692.53, 161.49 727.84, 132.53 601.22 C103.57 474.61, -12.74 82.16, -42.01 -22.57" stroke="#ededed" stroke-width="4" fill="none"></path></g></g><g stroke-linecap="round"><g transform="translate(8946.860441901144 1731.2804716005217) rotate(353.35512915680283 9.090555179756848 881.4710230493268)"><path d="M-1.74 0.21 C-43.56 -13.77, -185.71 -103.25, -253.68 -83.44 C-321.66 -63.62, -398.63 37.6, -409.58 119.08 C-420.53 200.55, -370.52 291.73, -319.37 405.41 C-268.22 519.1, -132.58 704.01, -102.69 801.2 C-72.81 898.4, -141.85 915.9, -140.07 988.59 C-138.29 1061.28, -107.57 1142.24, -92.03 1237.35 C-76.49 1332.47, -44.56 1470.87, -46.83 1559.26 C-49.1 1647.65, -107.4 1724.12, -105.65 1767.7 C-103.9 1811.29, -70.36 1812.01, -36.34 1820.76 C-2.31 1829.52, 48.11 1815.58, 98.49 1820.25 C148.86 1824.92, 210.9 1850.16, 265.91 1848.79 C320.93 1847.41, 423.13 1829.5, 428.6 1812.01 C434.06 1794.52, 337.74 1761.97, 298.71 1743.83 C259.68 1725.68, 224.72 1719.08, 194.43 1703.17 C164.15 1687.25, 133.3 1726.43, 116.98 1648.32 C100.66 1570.22, 94.24 1343.65, 96.51 1234.54 C98.77 1125.44, 117.7 1060.08, 130.57 993.71 C143.44 927.33, 171.63 886.89, 173.72 836.3 C175.82 785.71, 179.92 834.29, 143.13 690.19 C106.33 546.09, -15.34 91.55, -47.04 -28.32 M2.51 -2.15 C-39.26 -15.82, -186.11 -101.42, -254.88 -80.62 C-323.65 -59.83, -399.34 41.31, -410.12 122.61 C-420.9 203.92, -371.41 294.2, -319.53 407.21 C-267.66 520.22, -129.27 704.14, -98.88 800.66 C-68.48 897.18, -138.56 912.87, -137.17 986.31 C-135.79 1059.76, -105.23 1146.15, -90.56 1241.34 C-75.89 1336.53, -46.15 1470.28, -49.16 1557.44 C-52.16 1644.6, -110.98 1720.33, -108.58 1764.29 C-106.18 1808.25, -69.39 1811.42, -34.74 1821.2 C-0.09 1830.99, 49.52 1818.33, 99.31 1823 C149.1 1827.67, 208.91 1851.45, 263.99 1849.23 C319.06 1847.01, 424.37 1826.12, 429.78 1809.67 C435.2 1793.22, 335.65 1768.29, 296.47 1750.53 C257.3 1732.78, 225.48 1719.93, 194.74 1703.14 C164 1686.35, 127.67 1727.8, 112.06 1649.77 C96.44 1571.75, 98.46 1344.01, 101.04 1234.98 C103.62 1125.94, 115.96 1062.17, 127.53 995.58 C139.11 929, 167.94 885.7, 170.49 835.47 C173.04 785.23, 179.39 838.59, 142.83 694.19 C106.28 549.78, -17.41 90.16, -48.83 -30.96" stroke="#ededed" stroke-width="4" fill="none"></path></g></g><g stroke-linecap="round"><g transform="translate(5021.928619406818 1549.0897529977083) rotate(343.7328029239761 32.2409642858554 468.69204442744933)"><path d="M-2.38 0.28 C-28.23 28.65, -137.63 116.33, -154.78 169.79 C-171.93 223.25, -129.14 252.76, -105.28 321.06 C-81.43 389.36, -44.68 515.63, -11.65 579.58 C21.39 643.54, 78.45 665.26, 92.93 704.8 C107.42 744.34, 73.28 778.9, 75.28 816.84 C77.27 854.78, 81.27 920.22, 104.91 932.43 C128.55 944.65, 200.96 922.77, 217.11 890.11 C233.27 857.45, 212.7 784, 201.83 736.49 C190.96 688.97, 166.93 671.05, 151.88 605.01 C136.84 538.97, 133.36 412.3, 111.58 340.23 C89.8 268.17, 39.45 228.89, 21.22 172.61 C2.99 116.32, 5.42 30.92, 2.19 2.52 M1.52 -2.04 C-23.54 25.53, -131.66 112.4, -149.9 165.44 C-168.14 218.49, -131.12 248.07, -107.91 316.24 C-84.71 384.41, -44.78 510.74, -10.67 574.45 C23.44 638.17, 81.93 658.45, 96.77 698.52 C111.62 738.58, 76.69 775.18, 78.38 814.83 C80.08 854.48, 84.05 924, 106.95 936.42 C129.84 948.85, 199.35 921.87, 215.76 889.39 C232.17 856.9, 217.02 788.83, 205.42 741.49 C193.82 694.14, 161.64 671.9, 146.14 605.33 C130.64 538.77, 133.6 414.24, 112.42 342.07 C91.23 269.9, 37.11 228.99, 19.03 172.31 C0.95 115.62, 6.9 30.16, 3.92 1.94" stroke="#ededed" stroke-width="4" fill="none"></path></g></g><g stroke-linecap="round"><g transform="translate(7151.421423428605 1461.113012875111) rotate(333.56689041975363 9.473546178438482 270.8324601611423)"><path d="M2.78 -0.13 C-19.01 18.87, -114.91 79.52, -129.46 112.98 C-144.01 146.44, -101.27 170.74, -84.53 200.63 C-67.79 230.51, -50.65 261.35, -29.01 292.29 C-7.37 323.23, 35.81 358.12, 45.32 386.27 C54.82 414.42, 27 434.98, 28.01 461.18 C29.03 487.39, 31.97 535.07, 51.42 543.52 C70.87 551.97, 130.59 534.1, 144.72 511.89 C158.85 489.68, 146.91 440.41, 136.19 410.26 C125.46 380.1, 90.75 362.58, 80.4 330.98 C70.04 299.39, 81.5 258.46, 74.06 220.67 C66.62 182.87, 48.46 141.2, 35.76 104.21 C23.06 67.21, 4.02 16.15, -2.13 -1.29 M0.84 -2.67 C-20.13 15.54, -109.41 74.1, -123.91 108.38 C-138.4 142.66, -101.95 172.12, -86.12 202.99 C-70.3 233.86, -50.49 262.87, -28.98 293.6 C-7.48 324.34, 34.18 359.93, 42.91 387.4 C51.64 414.88, 21.62 432.73, 23.37 458.45 C25.11 484.17, 33.52 532.84, 53.4 541.7 C73.27 550.56, 129.34 533.97, 142.62 511.61 C155.9 489.25, 143.07 438.01, 133.08 407.56 C123.08 377.11, 92.61 360.94, 82.65 328.91 C72.7 296.89, 81.44 253.05, 73.32 215.42 C65.2 177.79, 46.61 139.69, 33.93 103.13 C21.25 66.57, 3.48 13.44, -2.75 -3.94" stroke="#ededed" stroke-width="4" fill="none"></path></g></g><g stroke-linecap="round"><g transform="translate(4362.560819406433 1566.9531765602894) rotate(37.901392985564016 32.15467748853189 434.30104642347817)"><path d="M0.28 -2.8 C-31.62 10.89, -176.05 38.3, -191.89 79.76 C-207.73 121.22, -136.27 175.69, -94.75 245.99 C-53.22 316.29, 18.77 434.27, 57.26 501.56 C95.74 568.84, 126.69 603.83, 136.17 649.69 C145.65 695.56, 109.75 739.83, 114.13 776.75 C118.52 813.67, 142.09 866.23, 162.47 871.22 C182.85 876.21, 221.48 835.36, 236.41 806.68 C251.33 778, 262.96 757.07, 252.04 699.15 C241.12 641.23, 191.91 530.69, 170.88 459.17 C149.85 387.66, 142.7 329.67, 125.85 270.07 C109 210.48, 90.35 146.31, 69.79 101.61 C49.24 56.91, 13.78 19, 2.52 1.85 M-3.01 1.85 C-35.14 16.11, -177.99 41.3, -193.46 82.57 C-208.93 123.84, -137.88 179.45, -95.84 249.49 C-53.81 319.54, 20.41 436.02, 58.74 502.83 C97.07 569.65, 125.71 605.06, 134.13 650.39 C142.56 695.72, 104.55 738.36, 109.28 774.81 C114.01 811.27, 141.71 864.12, 162.51 869.11 C183.31 874.1, 218.43 833.46, 234.07 804.77 C249.71 776.08, 267.79 754.73, 256.36 696.97 C244.92 639.21, 187.15 530.2, 165.45 458.19 C143.74 386.18, 142.5 324.3, 126.12 264.9 C109.74 205.51, 88.88 145.8, 67.16 101.8 C45.44 57.8, 6.69 18.29, -4.21 0.91" stroke="#ededed" stroke-width="4" fill="none"></path></g></g><g stroke-linecap="round"><g transform="translate(6390.715477938387 1508.1347559779776) rotate(37.901392985564016 31.981908590155626 450.37356602021373)"><path d="M-0.13 -1.57 C-33.28 12.11, -183.11 42.29, -199.95 84.86 C-216.8 127.44, -143.77 180.39, -101.21 253.88 C-58.65 327.37, 15.34 455.28, 55.4 525.78 C95.46 596.29, 128.85 630, 139.16 676.89 C149.47 723.79, 111.41 769.29, 117.24 807.15 C123.08 845, 152.64 898.2, 174.18 904.02 C195.73 909.84, 231.59 871.83, 246.51 842.06 C261.43 812.28, 275.95 786.67, 263.71 725.38 C251.47 664.09, 194.76 548.34, 173.09 474.32 C151.42 400.3, 150.71 343.46, 133.7 281.27 C116.7 219.08, 93.56 148.27, 71.06 101.19 C48.56 54.12, 10.62 15.35, -1.29 -1.17 M-3.65 3.75 C-37.01 19.14, -185.1 46.59, -201.78 88.71 C-218.47 130.82, -146.51 184.42, -103.76 256.43 C-61.01 328.45, 14.75 450.47, 54.69 520.81 C94.63 591.15, 124.96 631.09, 135.89 678.48 C146.83 725.87, 114.88 768.04, 120.3 805.15 C125.72 842.26, 147.7 895, 168.42 901.16 C189.13 907.32, 229.29 871.86, 244.61 842.09 C259.93 812.32, 272.12 782.84, 260.33 722.56 C248.55 662.28, 194.7 554.75, 173.9 480.4 C153.1 406.05, 153.24 340.03, 135.53 276.47 C117.82 212.9, 90.47 145.74, 67.64 99.03 C44.81 52.33, 10.21 12.3, -1.46 -3.76" stroke="#ededed" stroke-width="4" fill="none"></path></g></g><g stroke-linecap="round"><g transform="translate(8810.498921131733 1286.5235395046288) rotate(314.9203154310679 95.99850286191622 397.4514188921896)"><path d="M1.92 -1.5 C-25.78 6.6, -161.14 -2.35, -167.95 48.84 C-174.76 100.03, -87.13 229.45, -38.94 305.64 C9.25 381.83, 93.54 447.51, 121.19 505.96 C148.83 564.41, 124.41 617.19, 126.92 656.36 C129.44 695.52, 118.35 718.36, 136.28 740.94 C154.21 763.52, 199.92 786.51, 234.51 791.82 C269.11 797.13, 325 794.98, 343.84 772.8 C362.68 750.63, 363.61 699.21, 347.56 658.78 C331.51 618.36, 277.91 590.6, 247.55 530.26 C217.18 469.92, 190.6 363.32, 165.36 296.74 C140.11 230.17, 123.79 180.74, 96.05 130.83 C68.32 80.92, 15.1 18.68, -1.06 -2.73 M-0.48 3.85 C-28.19 11.05, -162.09 -6.43, -168.93 44.25 C-175.76 94.93, -89.72 230.8, -41.5 307.94 C6.73 385.08, 91.56 448.85, 120.42 507.1 C149.28 565.35, 128.46 617.7, 131.65 657.46 C134.84 697.22, 122.15 722.51, 139.56 745.65 C156.97 768.78, 202.31 791.9, 236.13 796.26 C269.94 800.63, 323.12 795.06, 342.44 771.85 C361.76 748.64, 367.54 697.4, 352.04 657.02 C336.54 616.65, 281.62 590.48, 249.43 529.62 C217.23 468.76, 184.89 358.57, 158.88 291.87 C132.87 225.18, 120.03 177.67, 93.37 129.44 C66.7 81.21, 14.97 23.52, -1.09 2.49" stroke="#ededed" stroke-width="4" fill="none"></path></g></g><g stroke-linecap="round"><g transform="translate(4299.937421339659 1501.6240808249304) rotate(318.8687826209182 285.57332049741296 -47.56914574956545)"><path d="M-2.8 1.22 C10.99 24.73, 26.33 127.57, 80.35 141.3 C134.38 155.03, 235.86 123, 321.37 83.61 C406.88 44.23, 569.72 -41.38, 593.41 -95.02 C617.09 -148.65, 563.36 -254.13, 463.49 -238.17 C363.61 -222.22, 57.41 -62.36, -5.86 0.7 C-69.14 63.75, 69.55 117.04, 83.83 140.14 M0.88 -0.58 C15.81 22.06, 32.76 123.74, 85.94 137 C139.12 150.26, 235.5 118.42, 319.95 78.99 C404.41 39.55, 569.36 -46.98, 592.66 -99.61 C615.97 -152.25, 560.34 -254.3, 459.78 -236.8 C359.23 -219.3, 53.02 -56.9, -10.65 5.41 C-74.32 67.71, 61.84 114.93, 77.77 137.05" stroke="#ededed" stroke-width="4" fill="none"></path></g></g><g stroke-linecap="round"><g transform="translate(6340.582427174619 1440.0775262718132) rotate(318.8687826209182 300.1742541901308 -50.3356873567393)"><path d="M-1.57 0.75 C12.21 24.79, 29.85 130.45, 85.48 144.12 C141.11 157.79, 242.93 123.66, 332.22 82.79 C421.52 41.91, 596.05 -45.84, 621.24 -101.12 C646.43 -156.4, 587.95 -266.78, 483.37 -248.91 C378.78 -231.05, 60.04 -59.85, -6.24 6.05 C-72.52 71.94, 70.19 123.04, 85.67 146.46 M2.77 -1.31 C15.97 23.1, 28.94 132.68, 83.46 147 C137.97 161.32, 239.95 125.49, 329.86 84.61 C419.77 43.72, 597.78 -42.83, 622.89 -98.31 C648.01 -153.79, 586.22 -265.48, 480.55 -248.27 C374.89 -231.06, 54.42 -60.4, -11.09 4.95 C-76.6 70.29, 71.48 120.24, 87.5 143.8" stroke="#ededed" stroke-width="4" fill="none"></path></g></g><g stroke-linecap="round"><g transform="translate(8212.261890919606 1305.9440425243956) rotate(295.63815709681734 348.8370086133523 -62.382592279349296)"><path d="M-1.5 2.33 C14.73 27.93, 57.7 138.37, 97.6 155.49 C137.5 172.61, 182.97 122.73, 237.88 105.04 C292.79 87.36, 370.36 72.13, 427.05 49.39 C483.74 26.64, 535.71 -4.38, 578.01 -31.43 C620.3 -58.47, 662.36 -75.04, 680.79 -112.9 C699.23 -150.75, 710.67 -232.66, 688.6 -258.55 C666.54 -284.43, 639.44 -298.08, 548.39 -268.22 C457.34 -238.36, 234.45 -124.95, 142.3 -79.4 C50.15 -33.85, 2.64 -34.5, -4.5 5.08 C-11.64 44.66, 82.71 132.94, 99.48 158.06 M2.88 1.13 C18.79 26.91, 57.05 140.75, 95.78 158.37 C134.52 175.98, 180.19 124.61, 235.26 106.8 C290.32 89, 369.59 74.45, 426.17 51.55 C482.74 28.66, 531.96 -2.76, 574.71 -30.56 C617.46 -58.36, 663.58 -76.9, 682.65 -115.26 C701.72 -153.61, 711.91 -235.04, 689.1 -260.7 C666.3 -286.37, 637.36 -298.92, 545.82 -269.24 C454.28 -239.55, 231.21 -128.37, 139.86 -82.6 C48.51 -36.82, 5.54 -35.19, -2.26 5.42 C-10.07 46.02, 75.83 136.23, 93.04 161.03" stroke="#ededed" stroke-width="4" fill="none"></path></g></g><g stroke-linecap="round"><g transform="translate(4257.9572055145945 2210.6873751856333) rotate(359.0391178944761 -99.23360672059954 642.603390909306)"><path d="M-2.52 -1 C16.35 15.6, 62.82 65.21, 110.55 100.16 C158.28 135.11, 265.42 139.69, 283.87 208.71 C302.33 277.74, 291.23 411.79, 221.27 514.32 C151.3 616.86, -54.52 750.23, -135.93 823.93 C-217.34 897.63, -281.37 887.13, -267.17 956.52 C-252.96 1025.91, -63.32 1184.82, -50.7 1240.27 C-38.08 1295.72, -152.77 1287.82, -191.46 1289.22 C-230.14 1290.62, -253.43 1277.25, -282.81 1248.67 C-312.2 1220.09, -333.32 1169.27, -367.78 1117.76 C-402.25 1066.24, -502.23 999.61, -489.59 939.6 C-476.95 879.6, -342.48 817.89, -291.96 757.74 C-241.43 697.58, -219.19 634.07, -186.44 578.69 C-153.7 523.3, -132.97 466.62, -95.51 425.44 C-58.04 384.26, 22.68 402.13, 38.35 331.61 C54.02 261.1, 4.98 57.83, -1.49 2.33 M1.31 -4.01 C20 11.78, 61.06 60.46, 108.07 96.38 C155.09 132.3, 264.59 142.64, 283.4 211.51 C302.2 280.39, 290.17 407.26, 220.92 509.65 C151.67 612.03, -51.13 751.78, -132.12 825.82 C-213.11 899.86, -278.67 885.37, -265.02 953.87 C-251.36 1022.37, -62.15 1181.02, -50.19 1236.8 C-38.23 1292.58, -155.19 1286.9, -193.26 1288.57 C-231.34 1290.23, -249.75 1275.19, -278.65 1246.78 C-307.55 1218.37, -331.82 1169.03, -366.68 1118.09 C-401.55 1067.16, -499.92 1001.23, -487.84 941.16 C-475.76 881.1, -344.38 817.23, -294.19 757.71 C-244 698.19, -219.43 639.37, -186.69 584.05 C-153.94 528.73, -135.3 466.83, -97.71 425.8 C-60.12 384.77, 22.54 409.19, 38.85 337.88 C55.16 266.57, 7.22 54.29, 0.15 -2.09" stroke="#ededed" stroke-width="4" fill="none"></path></g></g><g stroke-linecap="round"><g transform="translate(6359.779109184543 2116.793746654441) rotate(15.368942144277442 -88.13784088051102 644.9386078888597)"><path d="M0.75 0.39 C16.86 19.08, 52.68 59.41, 96.54 110.56 C140.39 161.71, 241.78 241.74, 263.87 307.28 C285.97 372.81, 300.38 412.14, 229.09 503.77 C157.79 595.4, -84.32 784.7, -163.89 857.06 C-243.46 929.43, -246.46 901.85, -248.32 937.96 C-250.18 974.07, -203.46 1015.56, -175.05 1073.72 C-146.63 1131.89, -69.99 1261.39, -77.82 1286.95 C-85.66 1312.5, -181.65 1258.17, -222.05 1227.07 C-262.46 1195.97, -280.27 1146.13, -320.25 1100.34 C-360.23 1054.56, -465.25 1001.09, -461.94 952.35 C-458.64 903.61, -344.22 860.3, -300.41 807.9 C-256.59 755.5, -231.38 691.93, -199.05 637.96 C-166.73 583.99, -149 530.49, -106.47 484.08 C-63.95 437.68, 37.89 440.04, 56.1 359.53 C74.31 279.02, 11.77 61.24, 2.8 1.02 M-2.29 -1.86 C14.78 17.36, 56.91 62.85, 102.19 113.63 C147.48 164.41, 248.14 238.69, 269.42 302.81 C290.7 366.94, 302.72 405.79, 229.88 498.4 C157.03 591, -87.28 785.54, -167.64 858.45 C-248 931.35, -251.37 900.33, -252.27 935.82 C-253.16 971.31, -201.77 1012.92, -173.01 1071.38 C-144.24 1129.84, -72.12 1259.99, -79.68 1286.59 C-87.24 1313.18, -177.31 1261.92, -218.36 1230.95 C-259.42 1199.98, -285.52 1147.02, -326.01 1100.78 C-366.49 1054.54, -466.3 1002.61, -461.27 953.52 C-456.23 904.43, -339.55 859, -295.8 806.26 C-252.05 753.53, -230.05 690.81, -198.76 637.12 C-167.46 583.42, -150.45 530.33, -108.04 484.09 C-65.63 437.84, 37.98 441.02, 55.68 359.65 C73.37 278.29, 7.31 56, -1.88 -4.11" stroke="#ededed" stroke-width="4" fill="none"></path></g></g><g stroke-linecap="round"><g transform="translate(8758.659755168877 2117.172280623984) rotate(335.84002568937257 -332.08632512350187 719.9846768514401)"><path d="M2.33 0.78 C9.43 37.25, 33.28 146.81, 44.5 217.36 C55.72 287.91, 75.4 358.41, 69.64 424.09 C63.88 489.77, 89.89 509.55, 9.96 611.44 C-69.97 713.34, -324.38 948.33, -409.95 1035.48 C-495.53 1122.62, -502.33 1096.37, -503.48 1134.34 C-504.64 1172.3, -451.95 1213.91, -416.88 1263.26 C-381.81 1312.62, -284.94 1405.87, -293.08 1430.47 C-301.23 1455.07, -412.58 1432.85, -465.78 1410.87 C-518.98 1388.89, -569.41 1326.77, -612.29 1298.58 C-655.17 1270.38, -704.55 1266.27, -723.06 1241.69 C-741.56 1217.1, -751.1 1194.07, -723.31 1151.06 C-695.53 1108.05, -605.25 1048.29, -556.33 983.65 C-507.41 919.01, -471.84 830.44, -429.8 763.25 C-387.76 696.06, -355.15 631.6, -304.1 580.52 C-253.04 529.43, -159.88 518.05, -123.48 456.73 C-87.08 395.42, -105.83 288.87, -85.7 212.61 C-65.56 136.35, -17.17 34.57, -2.65 -0.81 M0.16 -1.27 C8.02 35.69, 37.66 149.01, 50.15 220.18 C62.65 291.35, 81.8 360.06, 75.12 425.74 C68.45 491.41, 91.54 512.7, 10.11 614.23 C-71.33 715.76, -328.45 947.37, -413.48 1034.92 C-498.51 1122.47, -498.47 1102, -500.05 1139.5 C-501.64 1177.01, -457.04 1211.33, -422.98 1259.94 C-388.93 1308.55, -287.94 1406.49, -295.72 1431.17 C-303.5 1455.85, -415.99 1430.07, -469.66 1408.03 C-523.32 1385.99, -575.71 1326.35, -617.71 1298.95 C-659.71 1271.55, -704.84 1267.25, -721.65 1243.62 C-738.47 1220, -746.15 1200.66, -718.58 1157.22 C-691.02 1113.78, -604.33 1047.54, -556.26 982.99 C-508.2 918.45, -472.15 836.01, -430.19 769.93 C-388.22 703.85, -355.99 639.49, -304.47 586.51 C-252.94 533.53, -157.02 514.32, -121.04 452.06 C-85.06 389.8, -109.04 288.35, -88.61 212.94 C-68.19 137.53, -13.08 34.92, 1.51 -0.39" stroke="#ededed" stroke-width="4" fill="none"></path></g></g><g stroke-linecap="round"><g transform="translate(8830.745413306215 3470.8393632447774) rotate(0 379.02795441127 -1729.6763465210076)"><path d="M-0.58 1.33 C109.79 -515.96, 544.91 -2592.44, 659.71 -3101.01 C774.5 -3609.58, 797.94 -3567.17, 688.19 -3050.09 C578.45 -2533, 116.08 -506.48, 1.22 1.49 M4.3 -0.42 C114.6 -516.12, 544.1 -2588.76, 657.9 -3097.88 C771.69 -3607.01, 796.29 -3570.87, 687.05 -3055.18 C577.82 -2539.49, 116.36 -512.5, 2.47 -3.74" stroke="#ededed" stroke-width="4" fill="none"></path></g></g><g stroke-linecap="round"><g transform="translate(95.84910241224998 3839.570588266908) rotate(0 4970.727853359891 -12.755654158955622)"><path d="M-2.34 0.73 C1655 -3.96, 8286.34 -22.33, 9943.79 -26.24 M1.59 -1.34 C1658.46 -5.9, 8283.22 -19.3, 9940.92 -23.65" stroke="#ededed" stroke-width="4" fill="none"></path></g><g transform="translate(95.84910241224998 3839.570588266908) rotate(0 4970.727853359891 -12.755654158955622)"><path d="M9913.8 -15 C9918.13 -19.57, 9931.35 -18.45, 9944.34 -24.58 M9914.31 -11.96 C9921.62 -17.34, 9929.77 -21.4, 9942.57 -21.71" stroke="#ededed" stroke-width="4" fill="none"></path></g><g transform="translate(95.84910241224998 3839.570588266908) rotate(0 4970.727853359891 -12.755654158955622)"><path d="M9913.75 -35.52 C9918.38 -34.08, 9931.61 -26.97, 9944.34 -24.58 M9914.26 -32.48 C9921.51 -31.39, 9929.68 -28.98, 9942.57 -21.71" stroke="#ededed" stroke-width="4" fill="none"></path></g></g><g stroke-linecap="round" transform="translate(989.7906270533858 3770.7174396141468) rotate(0 70.30154637123223 72.10415717704768)"><path d="M129.47 33.11 C135.62 41.11, 137.18 52.59, 138.2 62.88 C139.23 73.16, 138.39 84.94, 135.62 94.83 C132.86 104.72, 128.31 115.04, 121.61 122.21 C114.91 129.38, 105.15 134.04, 95.4 137.85 C85.65 141.67, 73.54 146.01, 63.11 145.09 C52.67 144.17, 41.08 138, 32.79 132.36 C24.51 126.71, 18.58 119.64, 13.4 111.22 C8.21 102.81, 3.67 92.06, 1.69 81.88 C-0.3 71.69, -1.46 59.75, 1.5 50.12 C4.45 40.49, 12.16 31.96, 19.42 24.08 C26.68 16.19, 35.67 6.64, 45.06 2.81 C54.45 -1.01, 65.64 -0.2, 75.76 1.12 C85.88 2.44, 96.78 4.66, 105.78 10.72 C114.78 16.78, 125.18 32.63, 129.75 37.47 C134.31 42.32, 134.22 39.54, 133.17 39.79 M31.67 11.29 C38.58 5.65, 48.28 5.36, 58.08 3.73 C67.88 2.09, 80.98 -1.31, 90.46 1.47 C99.95 4.25, 107.18 13.58, 114.98 20.4 C122.78 27.21, 133.38 33.09, 137.26 42.36 C141.13 51.62, 139.16 64.72, 138.24 75.98 C137.31 87.24, 135.86 100.53, 131.71 109.89 C127.56 119.26, 121.77 126.53, 113.32 132.15 C104.87 137.78, 91.73 142.14, 81.02 143.64 C70.32 145.14, 58.3 144.41, 49.08 141.17 C39.87 137.92, 33.45 130.9, 25.73 124.16 C18 117.42, 7.16 109.88, 2.75 100.73 C-1.67 91.59, -1.92 80.14, -0.76 69.29 C0.41 58.45, 4.48 45.2, 9.73 35.66 C14.98 26.12, 27.4 16.11, 30.76 12.03 C34.12 7.94, 29.32 9.91, 29.87 11.14" stroke="#ededed" stroke-width="4" fill="none"></path></g><g stroke-linecap="round" transform="translate(2581.3444941615876 3749.0859422963567) rotate(0 70.3015463712322 72.10415717704768)"><path d="M36.96 7.43 C45.05 1.51, 55.55 -0.67, 65.84 -1.09 C76.12 -1.51, 89.41 0.95, 98.67 4.91 C107.93 8.87, 114.7 14.74, 121.38 22.69 C128.06 30.63, 135.72 42.25, 138.72 52.57 C141.73 62.89, 141.06 74.45, 139.39 84.6 C137.73 94.75, 134.48 105.29, 128.73 113.47 C122.99 121.66, 113.94 128.85, 104.93 133.73 C95.91 138.61, 84.75 141.79, 74.63 142.73 C64.51 143.68, 53.54 143.45, 44.21 139.4 C34.88 135.35, 25.26 126.35, 18.63 118.43 C12 110.52, 7.4 101.91, 4.43 91.93 C1.45 81.96, -0.99 69.17, 0.8 58.57 C2.59 47.97, 6.65 38.01, 15.16 28.35 C23.67 18.68, 42.76 4.79, 51.86 0.58 C60.97 -3.62, 69.42 1.93, 69.78 3.11 M43.43 6.6 C51.45 1.94, 63.97 -1.52, 73.9 -0.67 C83.82 0.18, 93.6 6.94, 102.99 11.69 C112.38 16.44, 124.46 19.85, 130.25 27.83 C136.05 35.82, 136.83 48.65, 137.74 59.6 C138.64 70.56, 138 83.11, 135.69 93.57 C133.38 104.03, 129.78 114.6, 123.88 122.36 C117.99 130.12, 109.38 136.55, 100.32 140.12 C91.25 143.7, 79.84 144.81, 69.49 143.81 C59.13 142.8, 47.92 138.76, 38.18 134.09 C28.45 129.42, 17.71 123.85, 11.08 115.78 C4.45 107.71, 0.29 96.65, -1.6 85.66 C-3.48 74.67, -3.59 60.32, -0.23 49.84 C3.14 39.37, 11.74 29.73, 18.59 22.81 C25.44 15.89, 36.58 11.22, 40.88 8.32 C45.19 5.41, 43.29 4.64, 44.43 5.39" stroke="#ededed" stroke-width="4" fill="none"></path></g><g stroke-linecap="round" transform="translate(4768.04847000706 3776.1250313579994) rotate(0 70.30154637123223 72.10415717704768)"><path d="M125.49 28.12 C132.59 35.56, 139.21 47.53, 141.09 57.88 C142.97 68.23, 139.36 80.17, 136.74 90.21 C134.12 100.25, 131.73 109.99, 125.35 118.11 C118.97 126.23, 108.1 134.68, 98.45 138.93 C88.8 143.19, 77.77 143.85, 67.46 143.64 C57.15 143.43, 45.25 142.73, 36.58 137.66 C27.92 132.59, 21.59 121.97, 15.49 113.24 C9.39 104.5, 2.4 95.04, -0.02 85.24 C-2.45 75.45, -2.02 64.24, 0.95 54.46 C3.91 44.68, 10.56 34.47, 17.78 26.55 C24.99 18.64, 34.71 11.4, 44.25 6.95 C53.78 2.5, 64.97 -0.25, 75 -0.15 C85.02 -0.04, 94.8 0.48, 104.4 7.6 C113.99 14.72, 127.38 34.56, 132.55 42.58 C137.71 50.6, 136.52 55.69, 135.37 55.72 M95.32 4.59 C104.81 7.4, 110.84 15.48, 117.77 22.45 C124.69 29.41, 132.71 37.24, 136.88 46.4 C141.04 55.55, 143.75 66.99, 142.76 77.37 C141.77 87.75, 136.62 99.9, 130.93 108.68 C125.24 117.47, 117.68 124.23, 108.63 130.08 C99.58 135.93, 86.98 142.43, 76.65 143.77 C66.31 145.11, 55.72 141.92, 46.63 138.1 C37.55 134.28, 29.32 127.56, 22.14 120.86 C14.97 114.15, 7.38 107.48, 3.6 97.89 C-0.19 88.29, -1.24 73.42, -0.58 63.31 C0.08 53.2, 1.88 45.56, 7.57 37.24 C13.27 28.92, 24.66 19.15, 33.57 13.37 C42.49 7.59, 50.86 4, 61.08 2.58 C71.31 1.16, 89.56 4.89, 94.94 4.84 C100.32 4.79, 94.32 1.75, 93.36 2.27" stroke="#ededed" stroke-width="4" fill="none"></path></g><g stroke-linecap="round" transform="translate(6563.296189186293 3749.085667240825) rotate(0 70.30154637123223 72.10415717704768)"><path d="M16.4 23.17 C22.32 14.65, 33.75 7.65, 43.16 3.91 C52.58 0.18, 62.95 0.19, 72.9 0.78 C82.86 1.37, 94.17 2.34, 102.9 7.44 C111.63 12.55, 119.05 22.61, 125.3 31.42 C131.56 40.23, 138.34 50.14, 140.42 60.32 C142.51 70.5, 140.41 82.54, 137.81 92.52 C135.22 102.5, 131.35 112.87, 124.85 120.19 C118.35 127.52, 108.55 132.77, 98.81 136.47 C89.07 140.17, 76.4 142.22, 66.43 142.4 C56.47 142.59, 47.53 142.27, 39.03 137.57 C30.54 132.87, 21.79 122.68, 15.44 114.2 C9.08 105.73, 3.08 96.96, 0.9 86.72 C-1.28 76.48, -2.89 65.25, 2.33 52.76 C7.55 40.27, 23.55 20.24, 32.22 11.8 C40.89 3.35, 53.69 1.33, 54.36 2.09 M22.74 19.11 C29.47 11.88, 44.16 8.04, 54.31 4.58 C64.47 1.12, 74.32 -3.24, 83.65 -1.67 C92.99 -0.11, 102.25 7.02, 110.32 13.98 C118.39 20.93, 126.66 30.6, 132.06 40.06 C137.45 49.51, 142.08 60.58, 142.71 70.69 C143.34 80.8, 140.65 91.32, 135.85 100.74 C131.06 110.15, 121.44 119.88, 113.92 127.19 C106.41 134.5, 100.14 142.42, 90.79 144.61 C81.44 146.8, 68.35 142.55, 57.84 140.31 C47.33 138.07, 36.38 137.25, 27.73 131.16 C19.09 125.07, 10.82 113.27, 5.95 103.79 C1.07 94.3, -1.84 84, -1.51 74.28 C-1.19 64.55, 3.69 54.85, 7.9 45.41 C12.11 35.98, 21.25 22.53, 23.76 17.65 C26.28 12.76, 22.16 14.88, 22.99 16.12" stroke="#ededed" stroke-width="4" fill="none"></path></g><g stroke-linecap="round" transform="translate(8775.882797768294 3749.085667240825) rotate(0 70.30154637123223 72.10415717704768)"><path d="M92.98 3.87 C102.91 6.66, 114.52 15.42, 121.75 22.93 C128.98 30.44, 133.59 39.57, 136.39 48.93 C139.18 58.3, 139.7 68.53, 138.52 79.1 C137.35 89.68, 134.5 103.09, 129.33 112.37 C124.17 121.64, 115.96 129.36, 107.56 134.74 C99.16 140.12, 89.33 143.44, 78.94 144.63 C68.56 145.81, 54.92 145.26, 45.26 141.84 C35.6 138.42, 28.19 131.91, 20.99 124.12 C13.78 116.34, 5.11 105.17, 2.02 95.13 C-1.07 85.09, 0.81 74.43, 2.45 63.87 C4.09 53.31, 6.77 40.49, 11.86 31.76 C16.95 23.03, 24.28 16.46, 32.99 11.51 C41.7 6.55, 52.19 2.48, 64.12 2.03 C76.06 1.58, 96.44 6.15, 104.6 8.81 C112.77 11.47, 113.78 16.93, 113.1 17.98 M74.22 2.34 C84.1 0.72, 92.64 2.19, 101.51 6.22 C110.37 10.25, 121.58 17.85, 127.43 26.53 C133.28 35.21, 134.32 47.78, 136.61 58.31 C138.9 68.85, 143.7 79.78, 141.18 89.73 C138.65 99.69, 128.63 110.39, 121.45 118.04 C114.27 125.69, 106.38 130.98, 98.1 135.65 C89.83 140.31, 81.42 145.75, 71.81 146.05 C62.19 146.34, 49.73 142.48, 40.43 137.41 C31.14 132.35, 22.8 123.73, 16.05 115.65 C9.3 107.57, 2.64 98.6, -0.08 88.93 C-2.81 79.26, -3.17 67.78, -0.29 57.66 C2.6 47.54, 10.09 36.41, 17.24 28.19 C24.39 19.97, 33.32 13.53, 42.61 8.35 C51.9 3.17, 68.19 -1.22, 72.98 -2.87 C77.78 -4.52, 71.64 -3.72, 71.37 -1.54" stroke="#ededed" stroke-width="4" fill="none"></path></g></svg>